<svg width="45" height="32" viewBox="0 0 45 32" fill="none" xmlns="http://www.w3.org/2000/svg">
<rect x="0.5" y="0.5" width="44" height="30.7647" rx="4.79412" fill="#002603" stroke="#173B1A"/>
<path d="M18.5312 30.6762L43.6783 23.0659V26.7056C43.6783 28.8985 41.9006 30.6762 39.7077 30.6762H18.5312Z" fill="#FD6020"/>
<path fill-rule="evenodd" clip-rule="evenodd" d="M38.9056 12.0583C40.289 12.0583 41.0499 12.6983 41.0499 13.9072C41.1191 14.8316 40.4966 15.6138 39.6665 15.756L41.5342 18.387H40.0815L38.4905 15.8271H38.3522V18.387H37.1762V12.0583H38.9056ZM38.3505 14.9738H38.6964C39.4573 14.9738 39.8031 14.6183 39.8031 13.9783C39.8031 13.4094 39.4573 13.0539 38.6964 13.0539H38.3505V14.9738ZM33.0971 18.387H36.4174V17.3204H34.273V15.6138H36.3482V14.5471H34.273V13.125H36.4174V12.0583H33.0971V18.387ZM29.6361 16.3249L28.0451 12.0583H26.7999L29.3594 18.5293H29.9819L32.5414 12.0583H31.2963L29.6361 16.3249ZM15.5965 15.2582C15.5965 17.036 16.98 18.5293 18.7093 18.5293C19.2627 18.5293 19.7469 18.3871 20.2311 18.1737V16.7515C19.8853 17.1782 19.401 17.4626 18.8477 17.4626C17.7409 17.4626 16.8416 16.6093 16.8416 15.4716V15.3294C16.7724 14.1916 17.6717 13.1961 18.7785 13.125C19.3319 13.125 19.8853 13.4094 20.2311 13.8361V12.4139C19.8161 12.1294 19.2627 12.0583 18.7785 12.0583C16.98 11.9161 15.5965 13.4094 15.5965 15.2582ZM13.4505 14.476C12.7587 14.1916 12.5512 14.0494 12.5512 13.6938C12.6204 13.2672 12.9662 12.9116 13.3813 12.9828C13.7272 12.9828 14.073 13.1961 14.3497 13.4805L14.9723 12.6272C14.4881 12.2005 13.8655 11.9161 13.2429 11.9161C12.2745 11.845 11.4444 12.6272 11.3752 13.6227V13.6938C11.3752 14.5472 11.7211 15.0449 12.8279 15.4005C13.1046 15.4716 13.3813 15.6138 13.658 15.756C13.8655 15.8982 14.0039 16.1116 14.0039 16.396C14.0039 16.8938 13.5888 17.3204 13.1738 17.3204H13.1046C12.5512 17.3204 12.067 16.9649 11.8595 16.4671L11.0985 17.2493C11.5136 18.0315 12.3437 18.4582 13.1738 18.4582C14.2805 18.5293 15.1798 17.676 15.249 16.5382V16.3249C15.1798 15.4716 14.8339 15.0449 13.4505 14.476ZM9.43896 18.387H10.6149V12.0583H9.43896V18.387ZM3.97607 12.0583H5.70542H6.05129C7.71146 12.1294 9.02577 13.5516 8.95659 15.2582C8.95659 16.1826 8.54155 17.036 7.84981 17.6759C7.22725 18.1737 6.46633 18.4581 5.70542 18.387H3.97607V12.0583ZM5.49554 17.3205C6.04893 17.3916 6.6715 17.1782 7.08654 16.8227C7.50158 16.396 7.70911 15.8272 7.70911 15.1872C7.70911 14.6183 7.50158 14.0494 7.08654 13.6228C6.6715 13.2672 6.04893 13.0539 5.49554 13.125H5.14967V17.3205H5.49554Z" fill="white"/>
<path fill-rule="evenodd" clip-rule="evenodd" d="M23.7552 11.9116C22.0259 11.9116 20.5732 13.3338 20.5732 15.1826C20.5732 16.9604 21.9567 18.4537 23.7552 18.5248C25.5538 18.5959 26.9372 17.1026 27.0064 15.2538C26.9372 13.4049 25.5538 11.9116 23.7552 11.9116V11.9116Z" fill="#FD6020"/>
</svg>
