<svg width="56" height="62" viewBox="0 0 56 62" fill="none" xmlns="http://www.w3.org/2000/svg">
<g opacity="0.15">
<path fill-rule="evenodd" clip-rule="evenodd" d="M4.28589 41.4174C4.23887 41.4306 4.17476 41.4659 4.15766 41.51C4.13201 41.5894 4.13201 41.682 4.11491 41.8629C4.01232 42.0967 4.26452 42.3128 4.36284 42.5775C4.37566 42.6084 4.4868 42.6437 4.50817 42.6216C4.7219 42.4319 4.92708 42.2334 5.12371 42.0261C5.15363 41.9952 5.15363 41.9026 5.13226 41.8629C4.9228 41.5674 4.69198 41.3115 4.28589 41.4174Z" fill="#00B307"/>
<path fill-rule="evenodd" clip-rule="evenodd" d="M3.41878 42.2467C3.36322 42.0481 3.20933 41.9114 2.97423 41.9423C2.92294 41.9599 2.86309 41.9643 2.82462 41.9996C2.8118 42.0129 2.8289 42.1011 2.85882 42.1275C3.03407 42.2908 3.14521 42.4716 3.09392 42.7319C3.07255 42.8422 3.08537 42.9613 3.10247 43.076C3.10674 43.1157 3.17513 43.1686 3.22216 43.1686C3.43588 43.1862 3.67526 42.8907 3.5684 42.7231C3.46581 42.5643 3.46581 42.4055 3.41878 42.2467Z" fill="#00B307"/>
<path fill-rule="evenodd" clip-rule="evenodd" d="M6.24387 44.0421C6.20112 43.9847 6.1541 43.8833 6.06006 43.9362C5.99167 43.9759 5.88908 44.1038 5.89763 44.1171C6.04297 44.32 5.83351 44.4744 5.85061 44.6552C5.85061 44.6773 5.88053 44.6994 5.91045 44.7391C5.9703 44.7038 6.03442 44.6641 6.09854 44.6288C6.41058 44.4479 6.44478 44.3112 6.24387 44.0421Z" fill="#00B307"/>
<path fill-rule="evenodd" clip-rule="evenodd" d="M2.52493 39.525C2.49501 39.5161 2.42235 39.5691 2.41807 39.6C2.40097 39.6838 2.4138 39.772 2.4138 39.8602C2.41807 39.8602 2.42235 39.8602 2.4309 39.8602C2.4309 39.9749 2.42235 40.094 2.43517 40.2087C2.44372 40.2837 2.49501 40.3102 2.53776 40.2837C2.69164 40.1822 2.77713 40.0455 2.76431 39.8514C2.75149 39.7279 2.63607 39.5514 2.52493 39.525Z" fill="#00B307"/>
<path fill-rule="evenodd" clip-rule="evenodd" d="M16.439 51.4308C16.4433 51.4308 16.4347 51.3823 16.4219 51.3646C16.2424 51.1176 15.9645 51.0735 15.7294 50.9456C15.6781 51.025 15.6311 51.0647 15.6225 51.1132C15.6183 51.1617 15.6439 51.2499 15.6738 51.2543C15.7422 51.272 15.8106 51.294 15.8747 51.3117C15.9047 51.3514 15.9389 51.3867 15.9944 51.422C16.0158 51.3955 16.0073 51.369 15.9944 51.347C16.097 51.3823 16.1953 51.422 16.2894 51.4793C16.3236 51.5014 16.392 51.4528 16.439 51.4308Z" fill="#00B307"/>
<path fill-rule="evenodd" clip-rule="evenodd" d="M3.84137 43.5391C3.74733 43.5083 3.62336 43.6009 3.61482 43.7156C3.59344 43.9273 3.64901 44.042 3.77725 44.0508C3.86701 44.0597 4.08074 43.9097 4.09784 43.8259C4.11494 43.7465 3.9696 43.5833 3.84137 43.5391Z" fill="#00B307"/>
<path fill-rule="evenodd" clip-rule="evenodd" d="M5.46642 42.9128C5.45788 42.8907 5.42795 42.8775 5.41085 42.8599C5.39376 42.8819 5.35956 42.904 5.35956 42.926C5.35529 43.151 5.35101 43.3716 5.35529 43.5965C5.35529 43.6186 5.38093 43.6583 5.39803 43.6627C5.41513 43.6671 5.44505 43.6406 5.46642 43.623C5.68443 43.4421 5.69298 43.398 5.55619 43.1378C5.52199 43.0672 5.50062 42.9878 5.46642 42.9128Z" fill="#00B307"/>
<path fill-rule="evenodd" clip-rule="evenodd" d="M4.4527 40.8086C4.44843 40.7866 4.41851 40.7425 4.40141 40.7469C4.27317 40.7601 4.12783 40.9763 4.14493 41.1307C4.14921 41.1571 4.17913 41.1792 4.19623 41.2012C4.31164 41.1836 4.4698 40.9498 4.4527 40.8086Z" fill="#00B307"/>
<path fill-rule="evenodd" clip-rule="evenodd" d="M4.50407 44.5141C4.4827 44.5891 4.4485 44.6641 4.53827 44.7258C4.57246 44.7038 4.64513 44.6729 4.64086 44.6597C4.61948 44.5891 4.58529 44.5229 4.55536 44.4567C4.53827 44.4744 4.50835 44.492 4.50407 44.5141Z" fill="#00B307"/>
<path fill-rule="evenodd" clip-rule="evenodd" d="M18.1868 55.542C18.2338 55.542 18.2851 55.5023 18.3321 55.4803C18.2851 55.4582 18.2381 55.4141 18.191 55.4141C18.1782 55.4141 18.1654 55.4229 18.1483 55.4273C18.0671 55.3788 17.9602 55.3303 17.9346 55.3788C17.9773 55.4053 17.9944 55.4361 17.973 55.4714C18.0329 55.4979 18.0885 55.5156 18.1312 55.52C18.144 55.5288 18.1654 55.5376 18.1868 55.542Z" fill="#00B307"/>
<path fill-rule="evenodd" clip-rule="evenodd" d="M8.48001 15.2722C8.45008 15.2898 8.44153 15.3428 8.42871 15.3869C8.47146 15.3737 8.51848 15.3692 8.53985 15.3384C8.57405 15.2987 8.5313 15.2457 8.48001 15.2722Z" fill="#00B307"/>
<path fill-rule="evenodd" clip-rule="evenodd" d="M8.42898 15.3869C8.42028 15.3869 8.41158 15.3913 8.40723 15.3913C8.40723 15.3956 8.40723 15.4043 8.40723 15.4087C8.41158 15.4087 8.42028 15.4087 8.42463 15.4043C8.42463 15.4043 8.42898 15.3956 8.42898 15.3869Z" fill="#00B307"/>
<path fill-rule="evenodd" clip-rule="evenodd" d="M8.30009 15.5193C8.30437 15.5413 8.36421 15.5501 8.40695 15.5678C8.40695 15.5148 8.40695 15.4663 8.40695 15.4134C8.34284 15.4178 8.27872 15.431 8.30009 15.5193Z" fill="#00B307"/>
<path fill-rule="evenodd" clip-rule="evenodd" d="M8.40723 15.5677C8.40723 15.5764 8.40723 15.5808 8.40723 15.5895C8.41158 15.5895 8.41593 15.5895 8.41593 15.5895C8.41593 15.5852 8.42028 15.5808 8.42028 15.5765C8.41593 15.5678 8.41158 15.5677 8.40723 15.5677Z" fill="#00B307"/>
<path fill-rule="evenodd" clip-rule="evenodd" d="M2.64081 20.4113C2.63654 20.4113 2.63226 20.4642 2.63654 20.4686C2.67073 20.4863 2.7092 20.4995 2.7434 20.5127C2.73485 20.4554 2.73058 20.3936 2.64081 20.4113Z" fill="#00B307"/>
<path fill-rule="evenodd" clip-rule="evenodd" d="M2.74316 20.5128C2.74316 20.5215 2.74751 20.5302 2.74751 20.5432C2.75621 20.5432 2.76492 20.5432 2.77362 20.5432C2.77362 20.5345 2.76927 20.5302 2.76927 20.5215C2.76057 20.5215 2.75186 20.5171 2.74316 20.5128Z" fill="#00B307"/>
<path fill-rule="evenodd" clip-rule="evenodd" d="M1.98229 21.7479C2.00366 21.7302 2.02076 21.7082 2.04213 21.6905C2.01221 21.6067 1.96946 21.6023 1.93099 21.6861C1.92672 21.6905 1.96519 21.7258 1.98229 21.7479Z" fill="#00B307"/>
<path fill-rule="evenodd" clip-rule="evenodd" d="M1.44839 22.5331C1.42701 22.5375 1.41419 22.5993 1.40137 22.6434C1.44839 22.6434 1.49968 22.6434 1.5467 22.6434C1.53388 22.586 1.53388 22.5154 1.44839 22.5331Z" fill="#00B307"/>
<path fill-rule="evenodd" clip-rule="evenodd" d="M1.2263 22.8198C1.2176 22.8198 1.2089 22.8198 1.20455 22.8198C1.20455 22.8285 1.2002 22.8415 1.2002 22.8502C1.2089 22.8459 1.2176 22.8415 1.2263 22.8415C1.2263 22.8328 1.2263 22.8285 1.2263 22.8198Z" fill="#00B307"/>
<path fill-rule="evenodd" clip-rule="evenodd" d="M1.3752 22.6654C1.28543 22.6786 1.23414 22.7272 1.22559 22.8198C1.27688 22.8198 1.3239 22.8198 1.3752 22.8198C1.3752 22.7713 1.3752 22.7183 1.3752 22.6654Z" fill="#00B307"/>
<path fill-rule="evenodd" clip-rule="evenodd" d="M1.20014 22.8506C1.16594 22.8639 1.13175 22.8771 1.09755 22.8948C1.089 22.8992 1.09755 22.9477 1.09755 22.9477C1.18732 22.9609 1.19159 22.908 1.20014 22.8506Z" fill="#00B307"/>
<path fill-rule="evenodd" clip-rule="evenodd" d="M11.2492 50.2177C11.2663 50.2001 11.2962 50.1868 11.2962 50.1692C11.2962 50.1516 11.2705 50.1339 11.2534 50.1163C11.2363 50.1427 11.2192 50.1692 11.2021 50.1913C11.2192 50.2001 11.2321 50.2089 11.2492 50.2177Z" fill="#00B307"/>
<path fill-rule="evenodd" clip-rule="evenodd" d="M13.9301 51.047C13.9557 51.1132 13.9942 51.1264 14.0241 51.0823C14.0326 51.0691 14.0284 51.047 14.0284 51.025C14.0113 51.0161 13.9899 50.9941 13.9813 50.9985C13.96 51.0073 13.9258 51.0382 13.9301 51.047Z" fill="#00B307"/>
<path fill-rule="evenodd" clip-rule="evenodd" d="M17.0199 55.1186C17.0156 55.1362 17.0498 55.1583 17.0626 55.1759C17.084 55.1583 17.1011 55.1406 17.1225 55.123C17.1054 55.1009 17.0883 55.0833 17.0712 55.0612C17.0541 55.0833 17.0242 55.0965 17.0199 55.1186Z" fill="#00B307"/>
<path fill-rule="evenodd" clip-rule="evenodd" d="M20.2048 55.4758C20.192 55.4582 20.1706 55.4185 20.162 55.4229C20.0851 55.4494 20.0808 55.4935 20.1535 55.5332C20.162 55.5332 20.1877 55.4935 20.2048 55.4758Z" fill="#00B307"/>
<path fill-rule="evenodd" clip-rule="evenodd" d="M47.8609 10.4685C47.9463 10.3229 47.8993 10.12 47.7027 9.88177C47.5531 10.0009 47.8352 10.2744 47.8609 10.4685Z" fill="#00B307"/>
<path fill-rule="evenodd" clip-rule="evenodd" d="M28.3908 3.15463C28.0531 3.12375 28.8054 3.06199 28.3993 2.987C28.4079 3.11051 28.0574 2.99582 27.912 3.02229C27.8437 3.15463 28.3139 3.27373 28.3908 3.15463Z" fill="#00B307"/>
<path fill-rule="evenodd" clip-rule="evenodd" d="M17.1355 4.16479C16.8875 4.24861 16.8619 4.3633 16.9388 4.48681C17.1825 4.403 17.2124 4.29272 17.1355 4.16479Z" fill="#00B307"/>
<path fill-rule="evenodd" clip-rule="evenodd" d="M31.8703 3.41934C31.6908 3.43699 31.5668 3.49874 31.3659 3.48991C31.3702 3.3664 30.1648 3.08409 29.9297 3.28259C30.558 3.37523 31.1308 3.45022 31.7079 3.5605C31.9986 3.61343 32.2892 3.66636 32.597 3.7193C32.9005 3.78106 33.2126 3.84722 33.5502 3.9178C33.4177 3.7193 33.0971 3.65754 32.7595 3.60902C32.426 3.56491 32.0712 3.55609 31.8703 3.41934Z" fill="#00B307"/>
<path fill-rule="evenodd" clip-rule="evenodd" d="M29.6769 2.92087C29.352 2.88999 29.3264 3.07085 28.9844 3.02232C29.1084 3.16348 28.7194 3.2076 28.9673 3.2473C29.0913 3.05762 29.5273 3.09291 29.6769 2.92087Z" fill="#00B307"/>
<path fill-rule="evenodd" clip-rule="evenodd" d="M1.42616 22.3875C1.52447 21.9773 1.64843 21.7214 1.7382 21.4965C1.66981 21.4788 1.56722 21.7214 1.49455 21.9596C1.41761 22.1978 1.40051 22.436 1.42616 22.3875Z" fill="#00B307"/>
<path fill-rule="evenodd" clip-rule="evenodd" d="M14.3957 10.1332C14.5453 10.0273 14.6094 10.1111 14.7761 9.97881C14.7547 9.84648 14.2974 10.0406 14.3957 10.1332Z" fill="#00B307"/>
<path fill-rule="evenodd" clip-rule="evenodd" d="M33.1995 0.812359L33.409 0.865291C33.4389 0.799124 33.3449 0.763836 33.3662 0.702079C33.2337 0.675612 33.1269 0.666787 33.0713 0.706488C33.2765 0.746189 33.3107 0.772659 33.1995 0.812359Z" fill="#00B307"/>
<path fill-rule="evenodd" clip-rule="evenodd" d="M34.9736 5.08238L35.2729 5.18825C35.3541 5.04268 34.995 4.96328 34.9736 5.08238Z" fill="#00B307"/>
<path fill-rule="evenodd" clip-rule="evenodd" d="M36.3069 3.86489C36.2641 3.81196 35.9264 3.63992 35.8623 3.70168C36.0376 3.73256 36.1743 3.93547 36.3069 3.86489Z" fill="#00B307"/>
<path fill-rule="evenodd" clip-rule="evenodd" d="M36.5633 5.54995C36.3795 5.47496 36.2256 5.43967 36.123 5.46614C36.2641 5.48819 36.5633 5.69993 36.5633 5.54995Z" fill="#00B307"/>
<path fill-rule="evenodd" clip-rule="evenodd" d="M37.346 5.46618C37.423 5.42207 37.2904 5.33826 37.1665 5.28973C37.0382 5.25003 36.9271 5.24562 37.0511 5.33385C37.1408 5.25003 37.1836 5.43972 37.346 5.46618Z" fill="#00B307"/>
<path fill-rule="evenodd" clip-rule="evenodd" d="M37.4609 5.52352C37.7131 5.66468 37.773 5.61616 37.9269 5.74849C38.0209 5.63821 37.4695 5.42206 37.4609 5.52352Z" fill="#00B307"/>
<path fill-rule="evenodd" clip-rule="evenodd" d="M40.4959 6.99678C40.3719 6.8865 40.3207 6.8865 40.2694 6.7277C40.2437 6.77181 40.1539 6.69682 40.124 6.72329C40.1625 6.79386 40.3634 7.03207 40.4959 6.99678Z" fill="#00B307"/>
<path fill-rule="evenodd" clip-rule="evenodd" d="M42.313 4.41184C42.1591 4.34567 41.8599 4.05453 41.8428 4.20892C42.0223 4.31479 42.2531 4.50007 42.313 4.41184Z" fill="#00B307"/>
<path fill-rule="evenodd" clip-rule="evenodd" d="M42.1973 8.90686C42.3853 9.05684 42.5392 9.20682 42.6632 9.35239C42.7017 9.24652 42.3341 8.92009 42.1973 8.90686Z" fill="#00B307"/>
<path fill-rule="evenodd" clip-rule="evenodd" d="M44.873 8.92898C45.0056 9.04367 45.1252 9.1319 45.2193 9.14954C45.1723 9.00838 44.9628 8.90692 44.873 8.92898Z" fill="#00B307"/>
<path fill-rule="evenodd" clip-rule="evenodd" d="M45.5956 11.0639C45.4674 10.9272 45.2494 10.7772 45.3135 10.6934C45.4118 10.7551 45.5657 10.9889 45.6256 10.936C45.4033 10.5302 44.8818 10.4243 44.4971 10.1376C44.6894 10.4419 45.3434 10.936 45.5956 11.0639Z" fill="#00B307"/>
<path fill-rule="evenodd" clip-rule="evenodd" d="M50.2979 13.0666C50.4175 13.2387 50.5458 13.1549 50.5287 13.071L50.4004 12.8946C50.3107 12.9255 50.4133 13.049 50.2979 13.0666Z" fill="#00B307"/>
<path fill-rule="evenodd" clip-rule="evenodd" d="M51.4727 16.3177C51.1693 16.0266 51.2633 15.8369 50.9769 15.5502C50.9641 15.6825 51.3189 16.428 51.4727 16.3177Z" fill="#00B307"/>
<path fill-rule="evenodd" clip-rule="evenodd" d="M52.901 19.2379C52.9566 19.207 53.0079 19.2026 53.0592 19.2423C52.8668 18.885 52.8155 18.5541 52.5975 18.2806C52.6232 18.3997 52.3881 18.2409 52.3154 18.0248C52.2812 18.0557 52.2171 18.0601 52.247 18.1395C52.4949 18.5629 52.8283 18.6379 52.901 19.2379Z" fill="#00B307"/>
<path fill-rule="evenodd" clip-rule="evenodd" d="M53.2041 19.0173L53.3323 19.3526C53.4734 19.4099 53.2682 18.8674 53.2041 19.0173Z" fill="#00B307"/>
<path fill-rule="evenodd" clip-rule="evenodd" d="M53.1143 19.9172C53.1613 19.8819 53.2468 19.8863 53.2254 19.7937C53.0331 19.8599 53.2212 19.3967 53.0117 19.4232C53.0502 19.5996 53.063 19.6569 53.1143 19.9172Z" fill="#00B307"/>
<path fill-rule="evenodd" clip-rule="evenodd" d="M50.9646 46.7417C50.8406 46.8167 50.9005 46.9181 50.7295 47.1078C50.7765 47.2534 51.0373 47.1167 51.0116 46.949C50.956 47.0152 50.8876 47.0637 50.8278 47.0902C50.8064 47.0196 51.0202 46.8035 50.9646 46.7417Z" fill="#00B307"/>
<path fill-rule="evenodd" clip-rule="evenodd" d="M40.2308 56.689C40.4958 56.5169 40.7694 56.389 40.7395 56.2875C40.5471 56.4949 40.188 56.5522 40.0684 56.689C40.1496 56.6493 40.2222 56.6184 40.2308 56.689Z" fill="#00B307"/>
<path fill-rule="evenodd" clip-rule="evenodd" d="M33.6742 59.265C33.8324 59.2077 33.9606 59.1459 33.9905 59.0621C33.8067 59.1151 33.5503 59.1459 33.6742 59.265Z" fill="#00B307"/>
<path fill-rule="evenodd" clip-rule="evenodd" d="M27.4372 60.3591C26.9115 60.4341 26.6507 60.4076 26.2275 60.4341C26.5781 60.5135 27.0611 60.5708 27.3731 60.4385C27.2449 60.4252 27.3988 60.3944 27.4372 60.3591Z" fill="#00B307"/>
<path fill-rule="evenodd" clip-rule="evenodd" d="M26.7188 60.112C26.8726 60.0326 27.1377 59.984 27.2744 59.8782C26.9496 59.9179 26.7829 59.9002 26.7188 60.112Z" fill="#00B307"/>
<path fill-rule="evenodd" clip-rule="evenodd" d="M26.1552 60.1296C26.3005 60.0414 26.4459 60.2664 26.651 60.1473C26.6596 60.0546 26.6126 59.9929 26.5057 59.9532C26.3134 59.9929 26.1295 60.0414 25.8731 60.0414C25.9329 60.1782 25.8816 60.1341 25.9415 60.2664C25.8261 60.2487 25.7491 60.3105 25.8688 60.337C25.9586 60.2399 26.2877 60.2708 26.3646 60.1693C26.2834 60.1693 26.168 60.1737 26.1552 60.1296Z" fill="#00B307"/>
<path fill-rule="evenodd" clip-rule="evenodd" d="M25.0098 60.4958C25.3646 60.7251 25.0269 60.5443 25.2962 60.509C25.4629 60.4869 25.7022 60.5928 25.8006 60.4561C25.4671 60.4913 25.309 60.4164 25.0098 60.4958Z" fill="#00B307"/>
<path fill-rule="evenodd" clip-rule="evenodd" d="M22.7861 60.2752C23.0255 60.2973 23.641 60.3678 23.5769 60.3105C23.2606 60.262 22.9699 60.2311 22.7861 60.2752Z" fill="#00B307"/>
<path fill-rule="evenodd" clip-rule="evenodd" d="M21.8333 59.79C22.0085 59.8121 22.0598 59.7547 22.188 59.8474C22.2778 59.7062 21.7862 59.6312 21.8333 59.79Z" fill="#00B307"/>
<path fill-rule="evenodd" clip-rule="evenodd" d="M21.1578 59.071C21.3972 59.0754 21.4485 59.146 21.5767 59.1063C21.534 59.0666 21.1193 58.9298 21.1578 59.071Z" fill="#00B307"/>
<path fill-rule="evenodd" clip-rule="evenodd" d="M20.3506 54.8671C20.5344 54.9156 20.7182 55.0524 20.8806 55.0039L20.9063 54.8936C20.6669 54.8318 20.5472 54.8892 20.3506 54.8671Z" fill="#00B307"/>
<path fill-rule="evenodd" clip-rule="evenodd" d="M17.5586 55.4758C17.7766 55.5023 17.8749 55.6126 17.9946 55.5949C17.9519 55.5685 17.9348 55.5376 17.9561 55.5023C17.7723 55.4361 17.5671 55.3347 17.5586 55.4758Z" fill="#00B307"/>
<path fill-rule="evenodd" clip-rule="evenodd" d="M16.1953 56.1419C16.2594 56.1816 16.2765 56.2257 16.2894 56.2699C16.5886 56.3007 16.6826 56.3404 16.9049 56.3448C16.6313 56.2125 16.5886 56.239 16.4176 56.1199C16.4646 56.2875 16.1996 56.0493 16.1953 56.1419Z" fill="#00B307"/>
<path fill-rule="evenodd" clip-rule="evenodd" d="M15.2168 51.4396C15.3963 51.5278 15.4904 51.6204 15.6015 51.7131C15.7212 51.4264 16.0161 52.0307 16.2042 51.8101C16.0717 51.7748 15.7725 51.7043 15.8708 51.5631C16.0931 51.5455 16.3709 51.9116 16.435 51.7175C16.0845 51.5852 15.858 51.4925 15.6357 51.2587C15.7768 51.541 15.4305 51.3117 15.5502 51.5543C15.4348 51.5146 15.2296 51.2896 15.2168 51.4396Z" fill="#00B307"/>
<path fill-rule="evenodd" clip-rule="evenodd" d="M8.97142 51.1176C8.80899 51.2146 9.03554 51.3822 9.17233 51.4043C9.00562 51.2852 9.14241 51.2367 8.97142 51.1176Z" fill="#00B307"/>
<path fill-rule="evenodd" clip-rule="evenodd" d="M6.74859 50.1295C6.9324 50.1868 6.50922 49.6619 6.38098 49.6133C6.3767 49.7766 6.31259 49.9177 6.38098 50.1074C6.47502 50.0897 6.54769 49.9927 6.67592 50.103C6.69302 50.1912 7.10766 50.7162 7.17177 50.5882C7.05636 50.403 6.90675 50.2883 6.74859 50.1295Z" fill="#00B307"/>
<path fill-rule="evenodd" clip-rule="evenodd" d="M17.0967 52.9879C17.101 52.9879 17.1054 52.9922 17.1097 52.9922C17.1054 52.9879 17.101 52.9879 17.101 52.9835L17.0967 52.9879Z" fill="#00B307"/>
<path fill-rule="evenodd" clip-rule="evenodd" d="M29.8438 58.4357L29.848 58.4666C29.9592 58.4402 30.0703 58.4093 30.1772 58.3828C30.066 58.4049 29.9549 58.4225 29.8438 58.4357Z" fill="#00B307"/>
<path fill-rule="evenodd" clip-rule="evenodd" d="M56 30.1556C55.953 29.3528 55.906 28.5632 55.8632 27.8C55.8504 27.6104 55.8376 27.4207 55.8247 27.2354C55.7991 27.0501 55.7777 26.8649 55.7521 26.684C55.7008 26.3223 55.6538 25.9694 55.6067 25.6297C55.4315 25.3562 55.4614 24.324 55.1194 24.0902C55.1023 23.68 55.0981 23.5344 54.9271 23.1595C55.1622 23.2653 54.833 22.7184 55.0083 22.7536C54.8501 22.4493 54.9143 22.017 54.7475 21.9111C54.8288 22.361 54.9997 22.6125 54.8672 22.7933C54.8031 22.3655 54.5894 21.9552 54.6706 21.6244C54.5466 21.3068 54.1918 20.7642 54.2389 20.4554C54.0722 20.4819 54.1363 20.0716 53.9738 19.9349C53.9055 19.9305 53.9268 20.0716 53.8755 19.979C53.7088 19.7408 53.7302 19.3482 53.572 19.1629C53.5977 19.2467 53.6233 19.3261 53.5549 19.3306C53.4524 19.132 53.5378 19.1056 53.4353 18.9071C53.3156 18.9335 53.4908 19.2247 53.4908 19.3614C53.649 19.4541 53.9439 20.2348 53.8969 20.3672C53.7558 20.1554 53.6447 20.1157 53.6661 19.8378C53.5549 19.829 53.649 20.0011 53.5806 20.0319C53.6618 20.2569 53.7729 20.2172 53.8542 20.4642C53.7473 20.4554 53.6575 20.3231 53.5549 20.2745C53.6319 20.5216 53.7558 20.4025 53.8371 20.6274C53.7986 20.7157 53.6533 20.4686 53.7003 20.6804C53.7302 20.7024 53.7516 20.7289 53.7644 20.7598C53.743 20.7642 53.7216 20.7686 53.7003 20.7774C53.6575 20.7995 53.6105 20.8259 53.5678 20.848C53.5763 20.8171 53.5934 20.7951 53.6233 20.7818C53.5122 20.5966 53.5336 20.5569 53.5122 20.3628C53.431 20.3981 53.4951 20.7024 53.5421 20.8612C53.4481 20.9142 53.354 20.9627 53.2557 21.0112C53.2472 21.0156 53.2301 21.0024 53.213 20.9848C53.1959 20.9186 53.1745 20.8568 53.1531 20.7907C53.1489 20.7157 53.136 20.6407 53.0676 20.5833C52.9864 20.3848 52.9223 20.1907 53.0078 20.0408C52.7812 19.9261 52.5205 19.0218 52.5504 18.7792C52.4649 18.7968 52.3666 18.6777 52.2811 18.5365C52.2811 18.4836 52.2811 18.4351 52.2897 18.3821C52.2982 18.3116 52.2426 18.2851 52.17 18.3027C52.1187 18.1748 52.0973 18.0645 52.1272 18.0469C52.0204 17.9454 51.9178 17.8396 51.8109 17.7249C51.7767 17.6367 51.7425 17.5484 51.7041 17.4602C51.7126 17.4602 51.7211 17.4646 51.7297 17.469C51.5972 17.1735 51.4604 16.9 51.3151 16.6353C51.3108 16.6309 51.3108 16.6265 51.3065 16.6221C50.9902 16.0177 50.6226 15.4311 50.2165 14.8885C50.0754 14.6415 49.9301 14.3812 49.7762 14.0945C49.7292 14.1342 49.6694 14.1077 49.6095 14.0459C49.5796 13.7636 49.2975 13.4769 49.0666 13.2211C49.0111 13.027 48.9213 12.8417 48.8059 12.6608C48.8144 12.6476 48.823 12.6344 48.8401 12.6211C48.7589 12.5108 48.7247 12.4976 48.699 12.5108C48.6648 12.4623 48.6264 12.4182 48.5922 12.3741C48.4383 12.18 48.2673 11.9903 48.1091 11.8006C47.9424 11.6154 47.7843 11.4301 47.6603 11.236C47.2756 10.614 46.8909 9.97441 46.4549 9.36567C46.0018 8.77898 45.4931 8.22758 44.822 7.8791C44.6895 7.76882 44.6809 7.9629 44.5612 7.87468C44.168 7.49532 43.6465 7.15124 43.1207 6.78512C42.5736 6.45428 42.0264 6.09256 41.5049 5.78378C40.7783 5.31619 40.1456 4.72068 39.3292 4.40748C38.8504 4.23986 38.4187 4.12076 38.0126 4.08547C37.6065 4.05459 37.2304 4.08988 36.8756 4.20457C36.166 3.89579 35.1615 4.23545 34.5246 3.72816C34.3664 3.75022 34.3493 3.91784 34.0886 3.82962C33.9005 3.78992 33.9218 3.7017 33.8321 3.63994C33.7893 3.84285 33.8962 3.82079 33.7466 3.96636C34.298 4.01489 34.5374 4.11634 35.0375 4.06341C35.1615 4.12075 35.1914 4.19575 35.3923 4.24427C36.5037 4.26191 37.8288 4.36779 39.2266 4.85302C40.5688 5.33825 41.6845 6.33958 42.6676 6.62631C42.8471 6.77629 42.6548 6.89099 42.7659 7.03215C43.3045 7.18213 43.5225 7.68942 44.0569 8.02467C44.4245 8.2761 44.8818 8.31139 45.2794 8.63341C45.6726 8.97307 45.9419 9.30832 46.2241 9.66122C46.4934 10.0229 46.7712 10.4023 47.1773 10.839C47.1816 10.8655 47.1858 10.8875 47.1901 10.914C46.9935 10.7464 46.8567 10.5876 46.5446 10.3405C46.5874 10.2611 46.7071 10.4552 46.7584 10.4111C46.5318 10.1685 46.3309 10.0185 46.1599 9.86413C45.989 9.70974 45.8479 9.54653 45.7239 9.2995C45.6299 9.44948 45.3777 9.14952 45.258 9.2201C45.523 9.48036 45.865 9.80678 45.8607 10.0803C45.6 9.93471 45.6427 9.6921 45.4888 9.68327C45.6513 10.0009 45.8436 10.1729 46.0702 10.3361C46.2967 10.4993 46.5233 10.6802 46.7797 10.9802C46.7456 11.0199 46.7028 11.0155 46.6558 11.0066C46.7883 11.2492 47.0533 11.4125 47.25 11.558C47.2927 11.6286 47.344 11.6948 47.391 11.7609C47.3568 11.7389 47.3226 11.7212 47.2799 11.7124C47.3226 11.8051 47.3782 11.9021 47.4124 11.9947C47.3739 11.9727 47.3397 11.9594 47.3183 11.9639C47.3654 12.0124 47.4081 12.0609 47.4466 12.1094C47.4551 12.158 47.4594 12.2065 47.4466 12.2462C47.1046 12.0521 46.7883 11.9595 46.4805 11.8845C46.4335 11.8139 46.3993 11.7433 46.3737 11.6815L46.2967 11.7609C46.3437 11.8006 46.3737 11.8359 46.3993 11.8668C46.3523 11.858 46.3095 11.8448 46.2625 11.8359C46.2412 11.8139 46.2198 11.7918 46.2027 11.7654C46.2412 11.7257 46.1685 11.5448 46.1129 11.6683C46.1728 11.7301 46.1856 11.7742 46.1642 11.8095C46.0573 11.7433 45.9334 11.7036 45.8479 11.6154C45.7539 11.5183 45.7197 11.3639 45.6427 11.2537C45.5358 11.1037 45.2153 11.1037 45.1426 11.2757C45.1169 11.3331 45.0913 11.3816 45.0614 11.4345C44.9631 11.3816 44.8647 11.3198 44.7664 11.2537C44.8049 11.0684 44.7793 10.8787 44.698 10.689C44.6852 10.6626 44.5997 10.6581 44.5484 10.6581C44.5271 10.6581 44.4929 10.6802 44.4843 10.7023C44.48 10.7111 44.4758 10.7199 44.4715 10.7331C44.3219 10.667 44.168 10.5787 44.1295 10.3935C44.0868 10.442 44.0654 10.4905 44.0825 10.5523C44.1979 10.6317 44.309 10.6978 44.4416 10.8346C44.4416 10.8478 44.4416 10.8611 44.4458 10.8655C44.51 10.9316 44.5399 11.0066 44.5655 11.0816C44.262 10.7817 43.9799 10.5302 43.6978 10.3405C43.6337 10.2964 43.5695 10.2611 43.5097 10.2214C43.5183 10.2126 43.5268 10.2038 43.5354 10.195C43.5183 10.1729 43.5012 10.1509 43.4841 10.1288C43.467 10.1464 43.4499 10.1597 43.437 10.1773C43.2361 10.0582 43.0438 9.96559 42.8557 9.88618C42.7873 9.81561 42.7232 9.74503 42.6719 9.68327C42.6035 9.63034 42.5266 9.58623 42.4496 9.5377C41.3211 8.47461 39.8421 7.4468 38.2221 6.69248C36.4524 5.84995 34.5502 5.33825 32.9601 5.1618C32.5967 4.98535 32.2548 4.85301 31.8786 4.77361C31.5024 4.6898 31.1006 4.62804 30.6219 4.62804C30.1303 4.17369 29.1643 4.11193 28.2238 4.16046C27.9887 4.17369 27.7536 4.18692 27.5271 4.20016C27.3005 4.2178 27.0783 4.23986 26.8731 4.24868C26.4584 4.26191 26.0994 4.24868 25.8344 4.15605C25.3855 4.73391 23.8723 4.59276 23.3423 4.39866C23.2782 4.60599 23.0559 4.69862 22.7951 4.73391C22.5344 4.77361 22.2309 4.7692 21.9915 4.75155C21.9744 4.67215 22.342 4.50012 21.9573 4.58834C21.7735 4.6104 21.7906 4.69862 21.7051 4.75597C21.517 4.66775 21.2819 4.62804 21.1665 4.47806C20.8203 4.52659 20.7989 4.67216 20.4527 4.72068C20.5168 4.58834 20.551 4.44718 20.7519 4.35455C21.2307 4.15605 21.3375 4.31044 21.6154 4.31926C21.5769 4.18251 21.4016 4.18252 21.6624 4.08106C21.8547 4.39866 22.2437 3.87373 22.5387 4.13399C22.3677 4.1781 22.2352 4.23104 22.1882 4.31926C22.5387 4.19133 22.9661 4.06782 23.2739 3.96195C23.1756 3.9796 23.0302 3.97078 23.1713 3.92225C21.4743 3.85609 19.8884 4.17369 18.3966 4.71186C16.9005 5.25443 15.4942 6.01316 14.0793 6.91745C13.857 6.89099 13.5364 7.04538 13.2244 7.1733C12.4763 7.82616 11.9035 8.22758 12.0318 8.8672C12.9465 8.18346 13.6305 7.55267 15.2591 6.70572C15.6566 6.65278 16.0071 6.71454 16.2123 6.97039C15.024 7.78205 13.5151 8.24522 12.4934 9.21127C12.3481 9.35243 12.331 9.46272 12.1857 9.58182C11.3008 10.3097 10.7836 10.5832 10.1638 11.064C8.95837 12.0036 7.94529 13.3093 6.96642 14.4782C6.75269 14.7385 6.34661 14.8532 6.32096 15.2855C6.6159 14.9855 6.9194 14.6679 7.1716 14.3503C7.43235 14.0371 7.66745 13.7416 7.81706 13.4769C8.15047 13.199 8.5993 12.8196 9.02676 12.3962C9.47986 11.9991 9.92015 11.558 10.3091 11.2316C10.5314 11.1037 10.7409 10.9713 10.9418 10.839C11.1469 10.7111 11.3393 10.5832 11.5274 10.4508C11.8993 10.1773 12.2626 9.91265 12.6345 9.63475C13.3783 9.07894 14.1862 8.5099 15.2933 8.01584C15.5369 8.21876 15.7635 8.03349 16.1311 7.8791C16.2508 8.18788 16.5714 8.17906 16.9775 8.02467C17.1655 7.84381 16.7466 7.88351 16.9433 7.73353C17.2126 7.71588 17.469 7.71588 17.5973 7.9232C17.3835 8.01584 17.157 8.15259 17.0202 8.13053C17.1997 8.33786 17.6657 8.08642 17.7896 8.38638C17.4177 8.59371 17.0715 8.83192 16.7381 9.06571C16.4132 9.31715 16.0969 9.56417 15.7891 9.81561C15.1736 10.3273 14.5709 10.8169 13.8656 11.2316C13.6048 11.236 13.3868 11.1213 13.1047 11.1787C13.1004 11.4742 13.6647 11.214 13.8613 11.3728C13.716 11.5933 13.4894 11.8095 13.2842 12.0344C13.2244 12.105 13.1645 12.1756 13.1047 12.2418C13.0919 12.2462 13.0791 12.2506 13.062 12.255C12.7969 12.3212 12.4892 12.4138 12.3695 12.7005C12.3481 12.7491 12.3225 12.7932 12.3011 12.8373C12.1002 12.9961 11.9164 13.1549 11.7497 13.3137C11.7411 13.3181 11.7326 13.3225 11.7197 13.3269C11.7026 13.3534 11.6813 13.371 11.6642 13.3931C11.6342 13.424 11.5958 13.4548 11.5659 13.4901C11.3521 13.6622 11.0786 13.671 10.8007 13.6666C10.7024 13.6666 10.6511 13.7239 10.6254 13.8166C10.6083 13.8695 10.5827 13.9268 10.5485 13.9665C10.463 14.0636 10.3861 14.2356 10.2236 14.0548C10.074 14.0901 9.99709 14.2092 9.94579 14.3371C9.85175 14.5753 9.72351 14.7429 9.44567 14.7253C9.39437 14.7209 9.32598 14.7429 9.29178 14.7782C9.09943 14.9899 8.81731 15.1223 8.72754 15.4222C8.67197 15.6163 8.51809 15.5766 8.39412 15.5987C8.37275 15.6472 8.35565 15.7134 8.32573 15.7266C7.90255 15.8589 7.58623 16.1369 7.28701 16.4545C7.12885 16.6221 6.98352 16.7853 6.75696 16.8779C6.45347 17.0059 6.09441 17.1205 6.15425 17.6014C6.1628 17.6631 6.06021 17.7425 6.00037 17.8087C5.89778 17.9146 5.79519 18.0116 5.68405 18.1087C5.62848 18.1572 5.57718 18.2719 5.48742 18.1616C5.42757 18.0866 5.27369 18.0425 5.39338 17.8925C5.42757 17.8484 5.45322 17.791 5.45322 17.7337C5.45322 17.6808 5.41902 17.6278 5.40193 17.5793C5.37628 17.597 5.35491 17.6102 5.32926 17.6278C5.14118 17.7734 5.02576 17.9851 5.03859 18.2057C5.04714 18.3204 5.07706 18.4042 4.99157 18.4924C4.85051 18.6336 4.72227 18.7968 4.49572 18.7924C4.22214 18.788 4.42305 18.9468 4.40168 19.0438C4.35893 19.2291 4.25634 19.4717 4.10673 19.5511C3.95285 19.6349 3.84598 19.7452 3.76477 19.8687C3.79896 19.7011 3.83743 19.5335 3.90155 19.3703C4.25207 18.3733 5.09843 17.3014 5.44467 16.3133C5.86785 16.1677 5.53016 16.0177 5.99609 15.656C5.94052 15.5281 5.87213 15.2855 5.73534 15.3561C5.6755 15.3384 5.60711 15.3958 5.53871 15.4531C5.33353 16.0089 5.00439 16.3309 4.87188 16.8559C3.85881 17.9234 3.28174 19.1938 2.86283 20.5657C2.82436 20.5701 2.79016 20.5745 2.74742 20.5701C2.75169 20.6274 2.78162 20.6716 2.82009 20.698C2.81154 20.7289 2.80299 20.7554 2.79444 20.7862C2.75597 20.9186 2.72177 21.0509 2.68757 21.1833C2.61491 21.2318 2.54224 21.2759 2.46102 21.3156C2.31569 21.3818 2.21737 21.5141 2.2131 21.7214C2.20455 22.3125 2.19172 22.3169 1.6745 22.6257C1.63176 22.6522 1.58474 22.6654 1.53772 22.6786C1.52489 22.7845 1.46932 22.8463 1.37101 22.8595C1.38383 23.0007 1.59756 23.133 1.37101 23.2874C1.25559 23.3668 1.153 23.4815 1.08034 23.605C1.05042 23.6579 1.02049 23.7065 0.986296 23.755C0.986296 23.7329 0.982021 23.7153 0.977747 23.6976C0.969198 23.7329 0.956374 23.777 0.94355 23.8167C0.89653 23.8741 0.840961 23.927 0.759745 23.9711C0.597311 24.0594 0.751195 24.2226 0.815314 24.3417C0.55029 24.6725 0.819588 25.1622 0.507545 25.4798C0.50327 25.7136 0.541741 25.9606 0.486172 26.1811C0.422053 26.4326 0.302365 26.6575 0.340836 26.9355C0.370758 27.1384 0.263894 27.2619 0.0758135 27.3192C0.0416169 27.328 -0.00112933 27.4383 0.0159689 27.4648C0.135657 27.6545 0.0587153 27.8309 0.0116951 28.0118C0.229698 28.2897 0.178403 28.6249 0.165579 28.9425C0.152755 29.2557 0.246796 29.591 0.0159689 29.8733C-0.0267767 29.9262 0.020244 30.0498 0.11001 30.085C0.216874 30.1292 0.328013 30.1556 0.319464 30.31C0.315189 30.4291 0.319464 30.5438 0.328013 30.6629C0.357935 31.1481 0.263894 31.651 0.498996 32.1186C0.528918 32.176 0.481897 32.2862 0.45625 32.3656C0.430602 32.4362 0.336562 32.4847 0.422053 32.5818C0.554565 32.7274 0.520369 32.9126 0.507545 33.0847C0.481898 33.4552 0.486172 33.6228 0.567389 33.7728C0.687077 33.9978 0.781118 34.2448 0.990572 34.4168C1.07179 34.483 1.1701 34.5977 1.17438 34.6947C1.1872 34.9638 1.2385 35.2109 1.36246 35.4402C1.31116 35.899 1.52489 36.2784 1.71725 36.6621C1.74289 36.7107 1.78564 36.7989 1.80274 36.7945C2.13188 36.7062 2.18318 37.0591 2.38408 37.1694C2.58499 37.2797 2.79444 37.3812 3.00389 37.4826C3.04236 37.5797 3.08084 37.6811 3.11931 37.7826C3.10648 37.8135 3.11503 37.8399 3.14923 37.8576C3.18342 37.9546 3.21762 38.0605 3.25182 38.1619C3.13213 38.2899 3.05091 38.409 3.17915 38.6339C3.31594 38.8721 3.36296 39.1677 3.43135 39.4412C3.45272 39.5338 3.47837 39.6132 3.55959 39.6397C3.67927 39.6794 3.75194 39.7059 3.67072 39.8647C3.61088 39.9882 3.6408 40.1779 3.55959 40.2749C3.35868 40.5087 3.62371 40.6366 3.64508 40.8175C3.65363 40.9101 3.79896 40.9013 3.85881 40.8528C4.01697 40.7248 4.1452 40.566 4.29909 40.4381C4.4487 40.3146 4.36321 40.2264 4.31619 40.0852C4.22215 39.8073 4.27771 39.5118 4.31619 39.2206C4.32046 39.1986 4.35038 39.1809 4.36748 39.1589C4.38885 39.1809 4.42305 39.203 4.42305 39.225C4.43587 39.4588 4.65815 39.5471 4.74364 39.7235C4.78639 39.8073 4.57693 39.9441 4.74364 39.9926C5.00012 40.0676 5.10271 40.2484 5.18392 40.4778C5.28224 40.7469 5.37628 41.016 5.49169 41.2762C5.61565 41.563 5.76099 41.8453 5.89778 42.1276C5.93197 42.2026 5.99609 42.2908 5.98754 42.3614C5.94907 42.6614 6.08586 42.8819 6.29104 43.0451C6.50904 43.2172 6.50904 43.4333 6.50476 43.6759C6.50049 43.8215 6.47912 43.9759 6.59881 44.0862C6.83391 44.3023 6.91512 44.6199 7.08183 44.8802C7.1545 44.9949 7.1716 44.8273 7.20152 44.7699C7.22289 44.7258 7.26136 44.6905 7.29128 44.6508C7.30838 44.6729 7.34258 44.6993 7.34258 44.7214C7.33403 45.0655 7.42807 45.4051 7.24854 45.7448C7.12458 45.9786 7.20152 46.2388 7.34685 46.4859C7.5905 46.8961 7.62043 46.9579 8.00086 47.0902C8.32146 47.2005 8.37703 47.2622 8.38557 47.5666C8.39412 47.8313 8.3642 48.1004 8.61213 48.2856C8.65487 48.3165 8.71044 48.3783 8.71044 48.4268C8.70617 48.837 9.00539 49.0444 9.24476 49.287C9.42429 49.4678 9.56963 49.706 9.8432 49.7678C9.96716 50.0369 10.1894 50.2222 10.3604 50.4515C10.5485 50.7074 10.9289 50.725 11.0187 51.0779C11.0315 51.1353 11.0999 51.1176 11.1298 51.0426C11.1512 50.9897 11.1469 50.9279 11.1726 50.875C11.1811 50.8574 11.194 50.8397 11.2025 50.8221C11.335 50.9324 11.4846 51.0426 11.63 51.1485C11.5274 51.0426 11.4077 50.8529 11.2837 50.6897C11.288 50.6765 11.2966 50.6677 11.2966 50.6544C11.3222 50.5133 11.2196 50.4692 11.0999 50.4339C11.0273 50.4118 10.9332 50.3412 10.9076 50.2751C10.8905 50.2266 10.8648 50.1869 10.8435 50.1427C10.8563 50.1427 10.8734 50.1472 10.8905 50.1516C10.8605 50.1119 10.8349 50.0942 10.8093 50.0766C10.6639 49.8428 10.4459 49.6708 10.2963 49.4414C10.1894 49.2737 10.0056 49.1061 10.0056 48.9341C10.0014 48.7223 10.151 48.5106 10.2322 48.2989C10.2621 48.2195 10.2878 48.1401 10.322 48.0607C10.3305 48.0342 10.3562 48.0121 10.3775 47.9945C10.4716 47.9283 10.4032 47.9636 10.4245 48.0607C10.4716 48.2812 10.587 48.3342 10.7793 48.3297C10.9631 48.3253 10.9118 48.418 10.8648 48.5415C10.7922 48.74 11.0016 48.6429 11.0657 48.7047C11.1298 48.762 11.1427 48.8194 11.0615 48.8282C10.7879 48.8459 10.8648 48.9958 10.9289 49.1502C10.7879 49.287 10.7836 49.459 10.8264 49.6355C10.8306 49.6619 10.852 49.6972 10.8734 49.706C10.8905 49.7149 10.9247 49.6884 10.9418 49.6707C11.0016 49.609 11.0914 49.5516 11.1085 49.4767C11.1897 49.1414 11.3863 49.0135 11.7155 49.0135C11.8394 49.0797 11.9634 49.1149 12.0617 49.0841C12.0275 49.1635 12.0104 49.2384 12.0361 49.3223C12.0147 49.309 12.0019 49.3002 11.9976 49.2958C12.0147 49.3178 12.0361 49.3355 12.0532 49.3576C12.0703 49.3973 12.0959 49.4326 12.1429 49.4723C12.1899 49.512 12.1728 49.6002 12.1429 49.6796C12.1002 49.6487 12.0574 49.6134 12.0061 49.5825C12.0703 49.437 11.7839 49.1282 11.7668 49.3046C12.0574 49.3399 11.7582 49.4678 11.8181 49.5296C11.9164 49.5825 11.9976 49.6928 12.0874 49.7987C12.0061 49.9795 11.9377 50.1604 11.8779 50.3457C11.7839 50.6412 11.7881 50.9235 12.0703 51.1264C12.3353 51.3161 12.4037 51.5808 12.3524 51.894C12.3396 51.9778 12.3566 52.0704 12.3438 52.1587C12.3396 52.1984 12.3438 52.2337 12.3438 52.2689C12.3011 52.2601 12.2541 52.2513 12.2028 52.2337C12.2541 52.2866 12.3054 52.3263 12.3566 52.3616C12.3609 52.388 12.3695 52.4145 12.378 52.4366C12.0403 52.2645 11.6941 51.9778 11.3436 51.669C11.07 51.422 10.7922 51.1661 10.5314 50.9279C10.2792 50.6809 10.0484 50.4427 9.82183 50.2751C9.90732 50.3545 9.56108 50.1736 9.46704 49.9972C9.46704 50.3015 9.95862 50.8441 10.0356 51.2632C10.2407 51.4573 10.3647 51.6205 10.3903 51.7793C10.4801 51.8499 10.5571 51.8984 10.6212 51.9116C10.5186 52.2204 11.7924 53.0762 11.5402 53.16C11.7668 53.257 11.9719 53.2879 12.2797 53.482C12.3481 53.4203 12.2199 53.3497 12.3182 53.2879C12.4763 53.3938 12.6088 53.4556 12.6901 53.4335C12.3566 53.2041 12.2199 53.3364 11.9249 53.1688C12.0361 53.0894 11.9078 52.9306 11.771 52.9174C11.6171 52.9659 11.942 53.0718 11.8736 53.1291C11.7881 53.0674 11.7839 53.1776 11.6727 53.0718C11.8907 52.9836 11.2196 52.7542 11.1683 52.5116C11.2153 52.4586 11.2709 52.4366 11.3564 52.4674C11.7112 52.7983 11.6 52.5557 11.8052 52.6174C11.9805 52.7233 11.8907 52.8071 12.0104 52.9086C12.1344 52.7806 12.4293 52.9659 12.6388 53.138C12.9337 53.2438 13.2415 53.2659 13.5279 53.3012C13.545 53.3144 13.5578 53.3276 13.5749 53.3409C13.7373 53.4908 13.9297 53.6099 14.1135 53.7379C14.1562 53.7687 14.2161 53.7423 14.2204 53.6673C14.2289 53.4953 14.3016 53.2967 14.1819 53.16C14.0195 52.9747 13.8955 52.7145 13.5792 52.7409C13.5108 52.7453 13.4082 52.6924 13.3654 52.6307C13.3056 52.5424 13.25 52.4498 13.1902 52.3616C13.203 52.3528 13.2244 52.3439 13.25 52.3395C13.203 52.3175 13.1688 52.2954 13.1346 52.2733C13.0449 52.1322 12.9594 51.9866 12.8696 51.8411C12.9551 51.6029 13.032 51.3602 13.1303 51.1264C13.1688 51.0426 13.1902 50.9676 13.1645 50.8838C13.156 50.8618 13.1175 50.8265 13.1175 50.8265C12.8055 51.0867 12.7542 50.7118 12.6088 50.5971C12.4977 50.5133 12.4934 50.3721 12.502 50.2398C12.6858 50.1736 12.7585 50.5398 12.9679 50.4515C12.985 50.4692 13.0064 50.4912 13.0278 50.5089C13.1432 50.6809 13.3441 50.8927 13.5706 51.0559C13.8057 51.2323 14.028 51.3867 14.1349 51.4838C14.1178 51.4441 14.2417 51.3911 14.2845 51.4088C14.3999 51.594 15.0112 51.6778 14.7248 51.722C14.9086 51.8543 14.9941 51.7925 15.1009 51.7749C14.6478 51.594 14.293 51.2897 13.9639 51.25C13.9083 51.0382 13.6219 50.9059 13.4082 50.7647C13.327 50.7074 13.2543 50.6589 13.1987 50.6059C13.2329 50.6015 13.2757 50.5795 13.3099 50.5662C13.3227 50.5618 13.3313 50.5177 13.3227 50.5045C13.2971 50.4515 13.25 50.4118 13.2329 50.3589C13.2073 50.2795 13.1816 50.1824 13.2757 50.1295C13.3483 50.0898 13.4296 50.0722 13.5108 50.1339C13.5749 50.1825 13.6433 50.2177 13.7117 50.2574C13.7202 50.3457 13.7074 50.4471 13.7502 50.5089C13.7886 50.5662 13.8869 50.5927 13.9639 50.6059C14.0793 50.6236 14.1947 50.6103 14.3059 50.6456C14.2503 50.6677 14.1904 50.6589 14.3272 50.7383C14.3785 50.7383 14.4384 50.7471 14.4982 50.7647C14.5196 50.778 14.541 50.7824 14.5623 50.7868C14.8829 50.9015 15.2634 51.197 15.507 51.2411C15.3574 51.1397 15.2121 51.047 15.071 50.95C15.1565 50.9544 15.242 50.9544 15.3317 50.95C15.3531 50.95 15.3788 50.9191 15.3873 50.8971C15.3916 50.8882 15.3745 50.8529 15.3617 50.8441C15.242 50.7603 15.118 50.7647 14.9983 50.8441C14.9855 50.8529 14.9812 50.8706 14.9727 50.8882C14.8915 50.8353 14.8145 50.778 14.7376 50.725C14.8145 50.6677 14.8872 50.6015 14.9812 50.6192C15.0795 50.6368 15.1821 50.6324 15.2847 50.6236C15.3745 50.7162 15.4728 50.8044 15.5839 50.8574C15.6139 50.7603 15.7849 50.9456 15.7977 50.8132C15.8105 50.7824 15.802 50.7515 15.7849 50.7206C15.9558 50.8132 16.1225 50.8 16.2978 50.7956C16.4816 50.7912 16.597 50.8221 16.6654 51.047C16.6996 51.1617 16.7808 51.25 16.892 51.2985C16.8749 51.3646 16.939 51.4441 17.0202 51.5235C16.8364 51.5146 16.768 51.6955 16.5415 51.6205C16.6355 51.6734 16.7039 51.7264 16.7167 51.7881C16.644 51.8455 16.4859 51.7661 16.4346 51.8543C16.644 51.9072 16.8749 52.0528 17.0843 52.2513C17.157 52.066 17.4605 52.2866 17.546 52.3483C17.4434 52.4145 17.2852 52.3616 17.1527 52.2425C17.1869 52.4454 16.9262 52.1895 16.9219 52.3395C17.1185 52.4851 17.8452 52.3572 18.0076 52.7542C17.5417 52.5116 17.3878 52.6351 17.0758 52.5777C16.9176 52.7409 16.9689 52.8733 17.0971 52.9924L17.1356 52.8953C17.2553 52.935 17.2681 52.988 17.3365 53.0321C17.2895 53.0453 17.2468 53.063 17.3109 53.1027C17.2639 53.1821 17.2382 53.0233 17.11 53.0012C17.2724 53.1468 17.5417 53.2747 17.6956 53.4291C18.1914 53.5614 18.8454 54.029 19.2601 54.0422C19.0976 53.9364 18.6916 53.857 18.7001 53.6408C18.8754 53.5085 19.0036 53.8481 19.1147 53.7114C18.8839 53.5747 18.7514 53.6188 18.7044 53.4423C18.777 53.4688 18.7771 53.3982 18.8369 53.4114C19.0463 53.535 19.2686 53.729 19.2045 53.8217C19.2216 53.7026 19.337 53.9717 19.384 53.8481C19.3114 53.7864 19.337 53.7026 19.3242 53.6276C19.0506 53.5394 18.8882 53.4203 18.8839 53.2703C19.243 53.2394 19.4824 53.4247 19.7517 53.4511C19.8029 53.557 19.8671 53.6541 19.9483 53.7379C20.021 53.8129 20.0979 53.7952 20.1791 53.7643C20.2475 53.7379 20.286 53.6276 20.3886 53.6938C20.5296 53.782 20.7006 53.8393 20.816 53.954C21.0768 54.2275 21.3803 54.4128 21.7265 54.5495C21.7308 54.5495 21.7308 54.5539 21.7308 54.5584C21.7222 54.5716 21.7094 54.5848 21.7051 54.6025C21.3803 54.5495 21.1494 54.6333 20.8246 54.4569C20.8374 54.4878 20.863 54.501 20.8844 54.5231C20.6792 54.479 20.4698 54.4392 20.2561 54.3995C20.1107 54.6289 20.4997 54.3951 20.4826 54.5848C20.3458 54.6201 19.897 54.5187 19.8884 54.3598C19.991 54.4084 20.0979 54.4569 20.1962 54.4878C20.1663 54.404 20.0295 54.351 19.9098 54.2981V54.2937C19.9055 54.2937 19.897 54.2893 19.8927 54.2893C19.82 54.254 19.7517 54.2187 19.7217 54.1658C19.679 54.1878 19.3926 54.1437 19.5208 54.2143C19.5251 54.2143 19.5379 54.2187 19.5422 54.2231C19.1147 54.1261 18.7172 53.9761 18.3368 53.8614C17.8537 53.6938 17.3921 53.5614 16.9133 53.5614C16.8193 53.3541 16.6312 53.2747 16.4346 53.257C15.9259 53.1027 15.5327 52.7851 15.2676 52.516C15.1052 52.7145 14.8658 52.1807 14.6264 52.1719C14.6307 52.1146 14.5922 52.0793 14.6777 52.0749C14.1691 52.0396 14.1349 51.4661 13.6005 51.2808C13.8057 51.4396 13.3056 51.3338 13.7117 51.5676C13.8228 51.5367 13.6518 51.3647 13.7886 51.4396C13.6604 51.6249 14.1092 51.8499 14.1733 52.1146C14.5623 52.1101 14.759 52.4674 15.1693 52.7145C15.1779 52.7983 15.1779 53.0541 15.3617 53.0188C15.1308 52.9262 15.46 52.9218 15.4985 52.8777C15.7207 52.9836 15.9003 53.138 16.0841 53.2747C15.9558 53.3012 15.849 53.3409 15.7891 53.3806C15.8404 53.4026 15.8874 53.4203 15.9387 53.4423C15.9345 53.482 15.943 53.5041 15.8703 53.5526C16.1097 53.7202 16.1696 53.6232 16.3064 53.6408C16.1311 53.8305 16.9133 54.0378 17.0629 54.2496C17.08 54.1702 17.1484 54.1658 17.2767 54.2143C17.2339 54.254 17.1826 54.2452 17.2382 54.3201C18.3624 54.7216 19.4011 55.0303 20.4313 55.348C20.8117 55.3215 21.8462 55.4671 21.7265 55.8288C22.979 56.239 24.3212 56.3228 25.7275 56.4464C26.202 56.2743 26.7833 56.3625 27.215 56.4022C27.1509 56.3934 27.3433 56.3096 27.463 56.3537C27.9075 56.5037 27.1595 56.6537 26.7876 56.636C27.1125 56.6316 26.7961 56.8831 26.732 56.9713C26.0224 57.0419 25.4454 57.011 24.8213 57.0771C24.6546 57.0551 24.6375 56.958 24.4451 56.9448C24.1673 57.0771 23.8894 56.8036 23.5646 56.7948C23.3765 56.786 23.2226 56.9316 23.0388 56.9051C22.8293 56.8786 22.6626 56.6978 22.4874 56.6713C22.3805 56.6537 22.1882 56.6934 22.0984 56.6845C22.1069 56.6845 22.154 56.6184 22.1711 56.6228C21.983 56.5919 21.8718 56.6801 21.7094 56.6625C21.6795 56.6581 21.6795 56.5434 21.6667 56.539C21.4529 56.4243 21.1409 56.5478 20.893 56.4993C20.7348 56.3493 21.1366 56.3846 20.8673 56.3008C20.8246 56.4199 20.5638 56.3317 20.4527 56.389C20.3202 56.142 19.7474 56.2258 19.8713 56.0449C19.6533 56.0185 19.3498 55.9964 19.0592 55.9258C18.7728 55.8552 18.4907 55.7758 18.3026 55.7009C18.371 55.7317 18.3496 55.7802 18.3325 55.8288C17.8751 55.6611 17.7255 55.6082 17.4562 55.5862C17.469 55.5509 17.5203 55.5641 17.5417 55.5376C17.1955 55.4141 16.8706 55.3215 16.5927 55.1936C16.3149 55.0656 16.0712 54.9421 15.8746 54.823C15.7977 54.8407 15.7336 54.8804 15.6395 54.876C15.5284 54.7172 15.4771 54.7348 15.3317 54.7657C15.242 54.6466 15.3531 54.5319 15.1565 54.5142C15.3147 54.7083 14.8744 54.5142 14.7419 54.4745C14.7718 54.4084 14.6008 54.351 14.6863 54.2804C14.7077 54.1966 14.8744 54.329 14.9086 54.2672C14.5239 54.0864 14.4768 54.1878 14.37 54.3334C14.4854 54.4569 14.7205 54.576 14.853 54.6995C15.0496 54.5628 15.631 54.9862 15.7378 55.1318C15.6609 55.0965 15.6609 55.1671 15.5925 55.1406C15.601 55.0965 15.6438 55.048 15.5754 55.0083C15.1394 55.0524 14.8188 54.7524 14.3657 54.4966C14.4384 54.6995 14.2033 54.5407 14.1349 54.6686C14.6051 54.9024 15.0838 55.1274 15.507 55.3436C15.3488 55.1847 15.725 55.3259 15.802 55.3215C15.896 55.4274 16.1952 55.6876 16.2978 55.6832C16.2294 55.6435 16.2551 55.5994 16.2764 55.5509C16.4602 55.8376 16.8706 55.9038 17.2083 56.089C16.8236 55.9214 16.9732 56.0758 16.674 56.0052C16.9304 56.1552 17.0672 56.2611 17.3109 56.2037L17.2767 56.3096C17.5887 56.3625 17.9563 56.5257 18.3453 56.6978C18.5419 56.7816 18.7386 56.8742 18.9395 56.9448C19.1447 57.0066 19.3498 57.0507 19.5507 57.0727C19.5507 57.1168 19.5166 57.1742 19.5892 57.2007C20.2945 57.2404 21.2392 57.7477 21.6068 57.6594C21.6111 57.8094 21.2734 57.7918 21.1323 57.6682C21.1281 57.9329 21.5427 57.8315 21.7137 57.827C21.7051 57.827 21.7137 57.902 21.7009 57.902C21.9702 57.9064 22.1112 57.7565 22.3933 57.7829C22.7524 57.8138 22.8293 58.0256 23.3038 58.03C23.1841 57.8359 23.7911 58.0873 23.9749 58.0123C23.6201 57.955 23.8253 57.9373 24.1117 57.9682C24.3981 57.9903 24.7743 58.0211 24.7657 58.1491C24.5477 58.127 24.5092 58.2196 24.3596 58.2373C24.7272 58.2417 24.552 58.2858 24.6161 58.4402C24.9153 58.4137 24.9453 58.5196 25.1504 58.5417C25.1248 58.4226 24.8555 58.4226 24.7572 58.3343C24.8469 58.3387 24.9025 58.3255 24.9581 58.3079C25.112 58.3608 25.206 58.5549 25.3556 58.4005C25.3471 58.4667 25.3684 58.5196 25.4197 58.5549C24.8769 58.5725 24.505 58.5902 24.1416 58.577C23.7826 58.5373 23.4321 58.4667 22.9362 58.3211C22.6284 58.3343 22.3207 58.2549 22.0129 58.1844C21.7009 58.1138 21.3888 58.0608 21.0597 58.0741C21.0639 58.0035 20.8459 57.9947 20.8844 57.9153C20.0423 57.8094 19.2558 57.2315 18.5291 57.2801C18.7087 57.355 18.978 57.3903 18.9609 57.4962C18.7557 57.4477 17.8195 57.2271 18.1017 57.0507C17.9435 57.0154 17.7939 56.9977 17.5802 56.9007C17.4348 57.0154 17.9093 57.0286 17.8666 57.1257C17.5716 57.0374 16.9005 56.8654 16.7552 56.5963C16.1696 56.3978 15.6823 56.1464 15.242 55.9302C14.806 55.7053 14.4255 55.4759 14.1092 55.2024C13.9895 55.3568 14.0237 55.0656 13.8998 55.0127C13.7288 54.9686 13.8741 55.2068 13.7587 55.145C13.6989 55.1098 13.6775 55.1318 13.6262 55.1098C13.3868 55.0039 13.4595 54.9024 13.327 54.801C13.2073 54.8495 12.938 54.6466 12.7114 54.5142C12.8012 54.2407 12.3011 54.1393 12.0745 53.9849C11.6043 53.6893 11.1256 53.2438 10.6468 52.8512C10.1809 52.4454 9.71496 52.0881 9.3901 51.7925C9.8432 52.3307 10.0997 52.3748 10.4502 52.8689C10.8135 53.0541 11.1683 53.3409 11.5274 53.6452C11.895 53.9364 12.284 54.2187 12.6687 54.4437C12.6131 54.5187 12.7029 54.5981 12.6943 54.6775C12.6003 54.6819 12.4464 54.5936 12.3481 54.5936C12.5362 54.8054 13.2671 54.9818 13.545 55.4097C13.6305 55.3215 13.7929 55.4935 13.9254 55.5729C14.2332 55.445 15.1437 55.9126 15.4771 56.1243C15.4343 56.1817 14.9171 55.8597 15.0795 56.014C15.2634 56.1023 15.4557 56.1905 15.4087 56.2964C15.2933 56.2655 15.0625 56.0802 15.024 56.1508C15.1992 56.2964 15.631 56.4287 15.4343 56.5963C15.6865 56.7463 15.4044 56.4243 15.678 56.5478C15.6823 56.5831 15.7165 56.614 15.7891 56.6404C15.8062 56.8389 15.6096 56.7551 15.507 56.7948C15.7507 57.0198 15.8233 56.8875 15.8618 56.8389C16.02 57.0242 15.6481 56.8919 15.7806 57.0463C16.0242 57.2359 16.3234 57.3506 16.4688 57.4036C16.3961 57.3683 16.379 57.3242 16.3619 57.2845C16.4688 57.3506 16.6697 57.2845 16.6868 57.408C16.6098 57.3859 16.503 57.333 16.4773 57.3683C16.8107 57.6021 17.4348 57.7388 17.6015 57.9859C17.7768 57.9991 17.5161 57.8359 17.7127 57.8668C18.1059 57.9506 18.0162 58.1138 18.2641 58.2241C18.3154 58.1844 18.2385 58.0123 18.3795 58.0697C18.6061 58.1755 19.0421 58.1932 18.9523 58.3564C18.8754 58.3652 18.4308 58.2505 18.5932 58.3387C18.9908 58.374 19.2387 58.524 19.4396 58.4093C19.7004 58.524 19.3456 58.5902 19.5935 58.6784C19.6918 58.6828 19.6362 58.5417 19.7602 58.5681C19.8329 58.6564 20.5211 58.996 20.2176 58.7622C20.4997 58.8681 20.5553 58.8769 20.9614 58.9828C20.9827 58.9299 20.9614 58.8416 21.0554 58.8504C21.6154 59.0401 22.1582 59.0975 22.6797 59.1725C23.2012 59.2342 23.7056 59.3048 24.2143 59.4018C24.2442 59.3401 24.1203 59.3004 24.2229 59.2916C24.6076 59.371 24.9239 59.4415 25.1889 59.3048C25.1889 59.3577 25.1547 59.3842 25.1162 59.4151C25.4026 59.3621 25.7617 59.4592 26.0182 59.5298C25.8258 59.6709 25.471 59.5298 25.3855 59.768C25.8728 59.768 26.0866 59.468 26.6423 59.5518C26.7363 59.468 26.4627 59.4062 26.638 59.4018C26.8474 59.4548 26.9073 59.446 27.0526 59.3666C27.0526 59.4945 27.2578 59.4945 27.4031 59.5386C27.946 59.371 28.4974 59.5959 28.9847 59.3357C29.2626 59.3401 29.5703 59.3445 29.8909 59.318C30.2115 59.2783 30.5407 59.2298 30.8613 59.168C31.5067 59.0489 32.1137 58.899 32.5326 58.749C32.6138 58.8328 32.9173 58.696 32.913 58.8504C33.2678 58.6166 33.5371 58.7843 33.7722 58.5461C33.6867 58.5637 33.6098 58.577 33.6184 58.5108C33.7722 58.4358 33.7893 58.4402 34.0757 58.3476C34.0971 58.4005 34.1014 58.4755 34.2424 58.4182C34.3921 58.127 34.9905 58.2064 35.3239 58.1491C35.3196 58.0741 35.2085 58.105 35.1529 58.0829C35.4094 57.9947 35.8668 57.7785 35.9907 57.9417C35.8369 58.0432 35.7086 57.8756 35.653 58.03C35.7471 58.0035 35.7556 58.0785 35.8198 58.0873C36.4652 57.6197 37.4612 57.3021 37.9314 57.1433C38.0981 57.0771 38.1237 56.9228 38.2007 56.8875C38.3973 56.7992 38.6239 56.8742 38.9359 56.6448C38.8803 56.6845 39.0257 56.6052 39.1838 56.5169C39.248 56.486 39.8592 56.0846 40.09 56.1331C40.1627 56.2037 39.6284 56.4331 39.8336 56.3934C40.0516 56.2655 40.1071 56.1861 40.3337 56.1331C40.261 56.0626 40.3251 55.9832 40.4235 55.9302C40.5175 55.8685 40.65 55.82 40.7227 55.8244C40.5645 55.9964 40.291 56.1508 40.2653 56.3008C40.6329 56.0582 41.2271 55.4582 41.351 55.7803C41.334 55.7494 41.4323 55.6744 41.4707 55.7053C41.2741 55.9391 41.4109 55.9435 41.2442 56.1552C41.552 55.7714 41.9281 55.595 42.2872 55.4009C42.642 55.2024 42.9968 55.0171 43.1848 54.5672C43.2404 54.6157 43.1677 54.6819 43.2148 54.7304C43.3943 54.5981 43.3088 54.5142 43.5653 54.3643C43.5952 54.4304 43.6764 54.3819 43.7106 54.4392C43.8474 54.3157 44.0098 54.1834 44.0611 54.0731C43.8217 54.2804 43.6679 54.3025 43.5567 54.2319C43.9628 53.9849 44.044 53.7114 44.4971 53.5879C44.2535 53.7379 44.3988 53.8084 44.1509 53.954C44.2578 53.9805 44.3133 54.1261 44.5142 53.9496C44.4886 53.9011 44.4116 53.857 44.48 53.7908C44.5399 53.9452 45.3264 53.4203 45.6128 53.138C45.5786 52.9836 45.4119 53.1821 45.3606 53.0674C45.4504 53.0409 45.5743 52.9262 45.6983 52.8027C45.647 52.9703 45.6769 52.9306 45.7923 53.0188C45.9847 52.8865 45.7838 52.86 45.9291 52.7409C46.0146 52.8512 46.254 52.538 46.3694 52.5821C46.5147 52.2734 46.6515 52.2866 46.6814 52.3836C46.8097 52.119 46.9123 52.0704 46.9721 51.8499C47.1089 51.819 47.002 51.8896 47.0747 51.9557C47.2713 51.7131 47.2585 51.7484 47.4637 51.6293C47.515 51.5234 47.515 51.4308 47.5577 51.3161C47.6988 51.272 47.7715 51.1132 47.686 51.3382C48.2716 50.7912 48.1348 50.306 48.4468 50.0766C48.2716 49.8648 48.5665 49.684 48.8102 49.5384C48.8102 49.4105 48.5836 49.5913 48.699 49.4458C48.8871 49.3443 48.994 49.2208 49.135 48.9738C49.2633 48.9958 49.1564 49.137 49.1949 49.2032C49.2419 49.0355 49.43 48.8944 49.4214 48.8326C49.3445 48.9032 49.2718 48.9385 49.2077 48.9385C49.3103 48.8017 49.2846 48.7312 49.4343 48.5679L49.5197 48.6341C49.7164 48.021 50.3533 47.4387 50.3704 47.1255C50.473 46.9182 50.5328 47.0549 50.6269 46.9534C50.5884 46.9226 50.5414 46.9358 50.4944 46.9534C50.5414 46.7726 51.1911 46.1859 50.8021 46.4682C50.9859 46.1859 51.1612 46.1727 51.1911 45.9477C51.0971 46.0889 51.0244 46.0403 51.0971 45.8904C51.0928 46.005 51.1697 45.9962 51.2638 45.8242C51.2467 45.7315 51.3065 45.5904 51.3493 45.4581C51.3364 45.6742 51.5715 45.2066 51.5929 45.1008C51.5587 45.1449 51.5202 45.2243 51.4903 45.2066C51.5502 45.0743 51.6741 44.7038 51.8109 44.6464C51.8323 44.7082 51.6784 44.889 51.734 44.9331C51.9092 44.7523 51.8494 44.6288 51.952 44.3994C52.2042 44.4082 52.1144 43.6804 52.3923 43.7377C52.2042 43.9671 52.1828 44.2229 52.1401 44.4391C52.093 44.6508 52.0417 44.8317 51.8323 44.9111C52.0075 45.0213 51.7767 45.1713 51.6741 45.4845C51.8152 45.4713 51.6955 45.6257 51.7297 45.683C51.9221 45.4051 51.7981 45.4845 51.8109 45.3963C51.8793 45.3566 51.952 45.1713 52.0161 45.2596C51.9776 45.3345 51.9092 45.436 51.9392 45.4669C52.0631 45.189 52.1785 45.0787 52.2854 45.0743C52.341 44.8846 52.4265 44.7479 52.5376 44.5626C52.6402 44.3685 52.7641 44.1303 52.9138 43.7509C52.9138 43.601 52.7684 43.795 52.8454 43.5568C53.3882 42.7584 53.4737 41.8497 53.7729 41.1792C53.7174 40.9983 53.5336 41.2321 53.6404 40.8969C53.7473 40.7469 53.8029 40.8175 53.8713 40.9013C53.9567 40.222 54.303 39.8867 54.4953 39.1853C54.2816 38.8148 54.8117 37.9193 54.6749 37.4253C54.645 37.7649 54.5424 38.1884 54.3799 38.3208C54.3201 38.0252 54.474 37.1959 54.692 37.3503C54.6578 36.94 55.004 36.6621 54.8159 36.4901C55.0767 36.4592 55.1964 35.6387 55.1836 35.1579C55.1836 35.2285 55.2391 35.0565 55.2605 34.8756C55.3161 34.3992 55.393 33.8654 55.4486 33.3405C55.4699 32.9303 55.4657 32.52 55.4315 32.1451C55.47 32.1451 55.5127 32.1495 55.564 32.1671C55.5341 31.7172 55.5041 31.2717 55.4742 30.8305C55.4828 30.8394 55.4913 30.8438 55.5127 30.8349C55.4529 30.6144 55.47 30.535 55.44 30.3277C55.4272 30.1777 55.4187 30.0321 55.4058 29.8821C55.4785 29.6969 55.5341 29.3616 55.5512 29.1719C55.5597 29.3131 55.6538 29.2557 55.6367 29.4542C55.5854 29.7718 55.6067 30.1644 55.7435 30.3938C55.7179 30.5438 55.6837 30.5482 55.6324 30.4688C55.7222 31.3158 55.6067 31.9466 55.7606 32.7229C55.6367 32.5288 55.6324 33.4331 55.7692 33.2346C55.6666 33.7243 55.5597 34.3507 55.5041 34.9727C55.4742 35.2858 55.4529 35.5946 55.4486 35.8858C55.4443 36.0313 55.4443 36.1725 55.4486 36.3048C55.4443 36.4372 55.4443 36.5607 55.4486 36.6798C55.4956 36.3181 55.7008 35.6828 55.6025 35.3608C55.735 35.5505 55.6751 35.0432 55.6196 34.9903L55.7264 35.0035C55.9573 33.4331 55.9829 31.7657 56 30.1556ZM45.7752 9.75826C45.8992 9.69651 45.9761 9.8906 46.0231 9.99206C45.9548 10.045 45.7923 9.80679 45.7752 9.75826ZM15.7934 55.1671C15.8062 54.973 16.1054 55.2553 16.1311 55.2068C16.285 55.3524 15.9473 55.2685 15.7934 55.1671ZM17.8666 56.4243C17.9563 56.2302 18.0675 56.486 18.3154 56.5478C18.2641 56.6184 18.0034 56.4508 17.8666 56.4243ZM18.3881 55.8597C18.418 55.7626 18.7001 55.8773 18.7642 55.9567C18.73 56.0317 18.4992 55.8773 18.3881 55.8597ZM22.8635 57.7565C22.9234 57.7344 23.0174 57.7388 23.1286 57.7565C23.1157 57.8094 23.1072 57.8623 23.1799 57.88C23.1243 57.955 22.7738 57.8535 22.8635 57.7565ZM24.9581 58.1711C24.9153 58.0653 25.0949 58.1005 25.0949 58.03C24.5734 57.8976 24.0305 57.977 23.8638 57.6727C24.3126 57.805 24.4964 57.6991 24.8469 57.6418C24.9324 57.6815 24.9709 57.7476 25.1034 57.7653C25.0008 57.8491 24.941 57.8138 24.7743 57.7873C24.8213 57.9329 24.9965 58.0167 25.2915 58.0388C25.3385 58.1799 25.1846 58.1976 24.9581 58.1711ZM53.2643 37.4562C53.3455 37.465 53.2215 37.6988 53.2172 37.8002C53.1959 37.7649 53.1745 37.7252 53.166 37.6723C53.1916 37.6105 53.2172 37.5532 53.2386 37.4914C53.2472 37.4914 53.2557 37.4826 53.2643 37.4562ZM52.6829 42.2864C52.5376 42.5378 52.5761 42.507 52.4478 42.8069C52.341 42.8907 52.2298 42.7716 52.3709 42.5379C52.4777 42.8246 52.482 42.2423 52.6829 42.2864ZM35.1486 56.1464C35.1315 56.239 34.8152 56.3008 34.6699 56.3537C34.7255 56.1508 34.8922 56.2302 35.1486 56.1464ZM31.7589 57.7079C31.3913 57.7432 31.2203 57.6903 30.81 57.6771C30.998 57.4786 31.387 57.5668 31.7717 57.4389C31.7675 57.5315 31.6948 57.5977 31.7589 57.7079ZM29.7499 57.7344C29.6986 57.8623 29.5276 57.7388 29.4848 57.7212C29.4549 57.6374 29.6687 57.6682 29.6644 57.5932C29.8952 57.5712 29.5233 57.7609 29.7499 57.7344ZM30.5407 57.6859C30.5107 57.7785 30.3398 57.8182 30.3098 57.9109C30.2072 57.8138 29.7456 57.9947 29.6986 57.8535C30.0021 57.9197 30.1987 57.6594 30.5407 57.6859ZM30.0534 57.1521C29.8439 57.2051 29.6558 57.2757 29.3096 57.3242C29.16 57.1345 29.4592 57.0639 29.8354 56.9669C30.2115 56.8786 30.6732 56.8169 30.8527 56.764C31.1348 56.8169 31.2118 56.958 30.8399 57.0683C30.8484 57.0374 30.8997 57.0198 30.8912 56.9845C30.4851 57.0507 30.2628 57.0992 30.0534 57.1521ZM29.425 57.7653C28.9505 57.8932 27.8434 57.8976 28.1084 57.7035C28.4461 57.8403 28.8779 57.6506 29.425 57.7653ZM31.1989 56.8963C31.1605 56.8036 31.3144 56.7772 31.4298 56.7419C31.4469 56.8389 31.3229 56.9448 31.1989 56.8963ZM31.682 55.7626C31.2417 55.8288 30.7971 55.8729 30.4552 55.9214C30.3056 55.9832 30.5321 56.0758 30.6646 56.0405C30.6219 56.1552 30.4039 56.0714 30.297 56.1023C30.2799 56.0361 30.3611 56.014 30.3355 55.9435C30.297 55.8641 30.032 55.9788 29.9038 55.9743C30.2927 55.7273 30.6988 55.6391 31.169 55.5817C31.4041 55.5553 31.6563 55.5288 31.9214 55.4979C32.1864 55.4538 32.4685 55.3832 32.7763 55.295C32.7848 55.348 32.7934 55.4009 32.866 55.3876C32.7079 55.4715 32.5241 55.5465 32.3232 55.6126C32.2248 55.6479 32.118 55.6788 32.0111 55.7053C31.9 55.7229 31.7931 55.745 31.682 55.7626ZM17.1442 51.3161C17.1698 51.3117 17.1997 51.3161 17.2254 51.3294C17.2211 51.3382 17.2254 51.347 17.2168 51.3558C17.1356 51.3382 17.0971 51.3294 17.0758 51.3161C17.1014 51.3161 17.1228 51.3205 17.1442 51.3161ZM13.7117 49.8119C13.6946 49.8296 13.6732 49.8472 13.6561 49.8648C13.639 49.856 13.6219 49.8472 13.6048 49.8384C13.6134 49.8251 13.6219 49.8119 13.6305 49.7987C13.639 49.7854 13.6476 49.7722 13.6561 49.759C13.6732 49.7766 13.6903 49.7943 13.7117 49.8119ZM24.6546 8.59812C24.6076 8.64664 24.5349 8.67311 24.4238 8.68193C24.4067 8.68193 24.3896 8.68193 24.3725 8.68193C24.3254 8.66429 24.2485 8.67752 24.1716 8.68635C24.3254 8.60253 24.4879 8.58488 24.6546 8.59812ZM54.4526 23.3756C54.4996 23.5388 54.4612 23.6094 54.4184 23.6756C54.3671 23.4771 54.3543 23.2698 54.2944 23.0713C54.2987 23.0315 54.303 22.9963 54.3115 22.9698C54.4312 23.3844 54.2731 23.3491 54.4526 23.3756ZM54.5424 23.7241C54.5637 23.852 54.5851 23.9447 54.6022 24.0285C54.5937 24.0241 54.5894 24.0197 54.5766 24.0197C54.5509 23.9844 54.5295 23.9491 54.5124 23.9138C54.4782 23.7991 54.4526 23.6976 54.5424 23.7241ZM54.3073 33.0626C54.3158 32.9656 54.2987 32.9082 54.2688 32.8729C54.2816 32.7097 54.303 32.5553 54.3372 32.4406C54.3628 32.4847 54.3842 32.5333 54.4056 32.5818C54.4141 32.5156 54.3885 32.4186 54.3799 32.3303C54.3842 32.3215 54.3885 32.3083 54.3928 32.2995C54.3885 32.2818 54.3842 32.2598 54.3799 32.2377C54.3842 32.2068 54.397 32.1804 54.4227 32.1627C54.4312 32.2951 54.521 32.2906 54.4782 32.5156C54.2346 32.7847 54.397 32.6347 54.3073 33.0626ZM31.8444 8.97748C31.8017 8.9863 31.7803 8.97307 31.7675 8.95543C31.7931 8.94661 31.823 8.94219 31.853 8.93337C31.853 8.95543 31.8487 8.97748 31.8444 8.97748ZM49.2676 16.106C49.1564 16.0971 49.0624 16.0663 49.0538 15.9251C49.0538 15.9207 49.0538 15.9207 49.0538 15.9163C49.1265 15.9736 49.1992 16.0354 49.2676 16.106ZM54.2389 30.9055C54.2303 30.7952 54.2218 30.6806 54.2132 30.5659C54.2175 30.557 54.2218 30.5482 54.2218 30.5394C54.2474 30.4556 54.3201 30.385 54.3885 30.3144C54.3885 30.4291 54.3885 30.5482 54.3928 30.6629C54.4013 30.9188 54.4184 31.1658 54.4569 31.3996C54.4013 31.404 54.3329 31.3908 54.3415 31.5363C54.397 31.5496 54.4782 31.5143 54.4825 31.6069C54.4569 31.8142 54.4141 31.9819 54.35 32.1142C54.2773 31.7745 54.256 31.3511 54.2389 30.9055ZM54.3714 29.9174C54.3714 29.9351 54.3714 29.9571 54.3757 29.9748C54.3671 29.9527 54.3671 29.9351 54.3714 29.9174ZM50.8235 17.844C50.7423 17.7558 50.7594 17.6322 50.862 17.5484C50.8705 17.544 50.8791 17.5396 50.8919 17.5396C51.0116 17.6896 51.1227 17.8616 51.2296 18.0557C51.0757 18.0866 50.9902 18.0293 50.8235 17.844ZM50.7038 17.3323C50.5798 17.297 50.4986 17.2132 50.4559 17.0853C50.5414 17.1602 50.6226 17.2396 50.7038 17.3323ZM54.2645 32.9347C54.2773 33.0185 54.2731 33.1111 54.256 33.2038C54.256 33.1155 54.256 33.0229 54.2645 32.9347ZM55.0724 26.4458C55.0895 26.3929 55.1152 26.3355 55.1451 26.2826C55.1494 26.4017 55.1323 26.5032 55.0852 26.5429C55.081 26.512 55.0767 26.4767 55.0724 26.4458ZM54.9869 25.7533C54.9869 25.7312 54.9869 25.7003 54.9912 25.6827C55.0168 25.7136 55.0382 25.7621 55.0596 25.8238C55.0382 25.8062 55.0126 25.7841 54.9869 25.7533ZM54.7689 24.9945C54.6792 25.1974 54.8074 25.4401 54.8715 25.4136C54.863 25.5062 54.8373 25.5371 54.8074 25.5415C54.7775 25.5018 54.7475 25.4621 54.7219 25.4224C54.7134 25.3959 54.7091 25.3695 54.7048 25.343C54.6706 25.2989 54.6321 25.2592 54.5937 25.2239C54.5723 25.1842 54.5509 25.1489 54.5424 25.1269C54.5124 25.0519 54.5979 24.9504 54.6877 24.9636C54.7091 24.9681 54.7347 24.9725 54.7561 24.9813C54.7646 24.9857 54.7646 24.9901 54.7689 24.9945ZM54.2602 22.9786C54.256 22.9742 54.256 22.9654 54.2517 22.9566C54.2389 22.9257 54.2389 22.9036 54.2431 22.8772C54.2517 22.9124 54.256 22.9477 54.2602 22.9786ZM25.0692 8.69075C25.0265 8.68634 24.9923 8.67752 24.9581 8.65987C24.9923 8.6687 25.0307 8.67752 25.0692 8.69075ZM33.7509 56.2258C33.8022 56.3846 33.5585 56.2611 33.3875 56.3625C33.4474 56.2523 33.5842 56.2434 33.7509 56.2258ZM47.7543 49.2958C47.8227 49.4193 47.5663 49.5031 47.4167 49.7413C47.3739 49.6928 47.3012 49.7546 47.2628 49.6972C47.4338 49.5472 47.6047 49.384 47.7543 49.2958ZM48.0878 48.8503C48.122 48.89 48.1604 48.9253 48.216 48.8679C48.2972 48.9385 48.0279 49.2252 47.9296 49.2605C47.8826 49.1679 47.9424 49.0267 48.0878 48.8503ZM53.3797 37.1165C53.3925 37.1253 53.4053 37.1297 53.4182 37.1385C53.3754 37.24 53.3583 37.2488 53.3369 37.2356C53.3498 37.1915 53.3669 37.1562 53.3797 37.1165ZM54.1662 34.311C54.1619 34.2536 54.1577 34.2007 54.1491 34.1522C54.1705 34.1301 54.1918 34.1125 54.2132 34.1036C54.2089 34.1698 54.1918 34.2404 54.1662 34.311ZM54.2987 33.861C54.2859 33.7728 54.2731 33.6581 54.2645 33.5346C54.2859 33.4331 54.3115 33.3405 54.3671 33.2082C54.35 33.5214 54.3201 33.6228 54.3329 33.8522C54.3244 33.8566 54.3115 33.861 54.2987 33.861ZM55.1622 27.7383C55.1964 27.5663 55.2092 27.3942 55.1793 27.1825C55.3802 27.2663 55.2947 27.7603 55.1921 27.9368C55.1836 27.8706 55.1707 27.8045 55.1622 27.7383ZM55.1066 26.684C55.1707 26.7634 55.2092 26.9178 55.2391 27.0987C55.1109 27.1825 55.0681 26.7987 55.1066 26.684ZM54.5937 23.1859L54.4526 23.2256C54.4013 23.1065 54.4825 22.908 54.3628 22.8772C54.3372 22.6345 54.4526 22.9345 54.4868 22.9169C54.5039 22.8242 54.4569 22.7713 54.397 22.7007C54.4227 22.6786 54.444 22.6566 54.4654 22.6345C54.5552 22.7801 54.6193 22.961 54.5937 23.1859ZM54.3158 21.9861C54.2688 21.9817 54.2431 21.8538 54.2175 21.7523C54.2218 21.7523 54.2261 21.7523 54.2303 21.7523C54.2645 21.7479 54.2944 21.7214 54.3158 21.6905C54.4056 21.889 54.303 21.8714 54.3158 21.9861ZM53.7302 21.2891C53.743 21.2803 53.7772 21.2847 53.7943 21.2979C53.9183 21.3818 53.9995 21.4876 54.0294 21.6464C54.0422 21.7214 54.1021 21.7479 54.1705 21.7523C54.1833 21.8096 54.1918 21.8714 54.1918 21.9508C54.1576 21.9596 54.1662 22.0214 54.1406 22.0434C54.0508 21.7214 53.8798 21.8317 54.0893 21.9861C54.0978 22.0302 54.1064 22.0743 54.1149 22.1184C53.9995 22.114 53.8841 22.114 53.7687 22.1008C53.7345 22.0964 53.6832 22.0082 53.6917 21.9685C53.7174 21.8626 53.8114 21.7567 53.7986 21.6685C53.7815 21.567 53.6575 21.492 53.6832 21.3597C53.6832 21.3332 53.7046 21.3068 53.7302 21.2891ZM52.5077 18.9556C52.4649 18.9335 52.4222 18.9159 52.3794 18.938C52.3538 18.8718 52.3239 18.8189 52.2982 18.7703C52.2897 18.7262 52.2854 18.6777 52.2854 18.6336C52.3538 18.7306 52.435 18.8497 52.5077 18.9556ZM47.8569 12.3741C47.8826 12.405 47.9125 12.4403 47.9382 12.4711C47.9339 12.48 47.9296 12.4932 47.9211 12.502C47.7714 12.4711 47.6988 12.2682 47.609 12.0741C47.6902 12.1756 47.7715 12.2771 47.8569 12.3741ZM45.3777 11.558C45.3905 11.5669 45.3991 11.5845 45.4076 11.6021C45.3777 11.5889 45.3478 11.5757 45.3178 11.5669C45.3307 11.5492 45.352 11.5404 45.3777 11.558ZM23.6757 8.75692C23.6757 8.7878 23.6757 8.81868 23.68 8.84515C23.7484 8.84515 23.7911 8.80545 23.8168 8.75251C23.9322 8.75251 24.0476 8.75692 24.1673 8.76134C24.1245 8.85838 24.039 8.92013 23.9578 8.97748C23.821 9.07011 23.7227 9.01718 23.6757 8.86279C23.6287 8.88044 23.5774 8.89367 23.5304 8.91572C23.3038 9.03483 23.2226 9.03042 23.1029 8.87161C23.0986 8.8672 23.0944 8.85838 23.0901 8.85397C23.2824 8.7878 23.4748 8.76574 23.6757 8.75692ZM22.0043 9.03042C22.201 8.99072 22.3891 8.97307 22.56 8.97307C22.5173 9.01277 22.4617 9.03924 22.372 9.03483C22.3164 9.03483 22.2395 9.03483 22.2138 9.07012C22.0215 9.32156 21.7137 9.11423 21.5 9.27303C21.3503 9.38331 21.2648 9.32597 21.1922 9.24215C21.4658 9.14511 21.7436 9.07894 22.0043 9.03042ZM7.79141 44.5273C7.76576 44.5229 7.74439 44.4391 7.74866 44.395C7.75294 44.3729 7.76576 44.3509 7.77858 44.3288C7.79141 44.3067 7.80851 44.2891 7.82133 44.267C7.8427 44.3111 7.8769 44.3508 7.88545 44.395C7.89827 44.4655 7.88973 44.5494 7.79141 44.5273ZM8.57366 46.7461C8.56511 46.7858 8.51381 46.8123 8.48389 46.8476C8.46679 46.8255 8.4326 46.8079 8.4326 46.7858C8.42405 46.7064 8.42404 46.627 8.41977 46.5476C8.4155 46.5476 8.41122 46.5476 8.40695 46.5476C8.40695 46.5432 8.40695 46.5344 8.40695 46.53C8.36848 46.5123 8.33 46.4947 8.29581 46.4726C8.28726 46.4682 8.30008 46.4153 8.30436 46.4153C8.3984 46.4021 8.40267 46.4638 8.40695 46.53C8.41122 46.53 8.4155 46.5344 8.41977 46.5344C8.41977 46.5388 8.41977 46.5432 8.41977 46.5476C8.54373 46.5476 8.60785 46.6138 8.57366 46.7461ZM9.09088 47.2314C9.04813 47.2049 9.00539 47.1784 8.95837 47.152C9.00539 47.1255 9.05241 47.0814 9.09943 47.0858C9.14645 47.0858 9.18919 47.1343 9.23621 47.1652C9.18919 47.1828 9.1379 47.2093 9.09088 47.2314ZM9.43712 47.6107C9.43284 47.6769 9.42857 47.7431 9.33025 47.7254C9.32598 47.7254 9.31316 47.6725 9.3217 47.6681C9.3559 47.646 9.39437 47.6284 9.43712 47.6107C9.43712 47.6063 9.43712 47.5975 9.43712 47.5931C9.44139 47.5931 9.44567 47.5931 9.44994 47.5931C9.44567 47.4872 9.43284 47.3813 9.51833 47.2975C9.56963 47.249 9.73634 47.249 9.73206 47.2975C9.72779 47.3416 9.71496 47.3946 9.68932 47.4254C9.6252 47.5049 9.56963 47.6019 9.44567 47.5931C9.44567 47.5975 9.44567 47.6019 9.44567 47.6063C9.44567 47.6063 9.44139 47.6107 9.43712 47.6107ZM10.1125 47.7739C9.99281 48.0563 9.74061 48.2724 9.71497 48.6076C9.71497 48.6253 9.61238 48.6518 9.56963 48.6385C9.52689 48.6253 9.46277 48.5591 9.46704 48.5282C9.54826 48.1974 9.68932 47.8886 9.89022 47.6151C9.90732 47.5931 9.99709 47.6151 10.0484 47.6284C10.0484 47.6284 10.0484 47.6284 10.0527 47.6284C10.0655 47.6416 10.0783 47.6548 10.0954 47.6681C10.0997 47.6769 10.1039 47.6813 10.1125 47.6857C10.1082 47.721 10.1253 47.7519 10.1125 47.7739ZM12.673 49.9663C12.643 50.0325 12.6003 50.0589 12.5362 50.0369C12.5533 49.9795 12.5875 49.931 12.673 49.9178C12.8183 49.8957 12.8824 49.9884 12.8653 50.1207C12.8653 50.1383 12.8696 50.1472 12.8696 50.1604C12.8226 50.1119 12.767 50.0501 12.673 49.9663ZM13.7416 50.2398C13.7416 50.2442 13.7373 50.253 13.7373 50.2574L13.7245 50.2442C13.7288 50.2442 13.7331 50.2442 13.7416 50.2398C13.7459 50.2266 13.7502 50.2133 13.7544 50.2001C13.7673 50.2089 13.7801 50.2133 13.7886 50.2221C13.7715 50.231 13.7544 50.2354 13.7416 50.2398ZM19.5166 54.8892C18.9865 54.6378 18.4693 54.3863 17.8409 54.2672C17.6357 54.1702 17.4348 54.0334 17.2168 53.8923C17.1955 53.8746 17.1698 53.857 17.1442 53.8437C17.2425 53.8658 17.3408 53.8879 17.4348 53.9099C17.6699 53.9628 17.8965 54.0158 18.123 54.0864C18.3539 54.1481 18.5932 54.2275 18.8497 54.3466C19.2815 54.1481 19.8927 54.9377 20.3031 54.8804C20.1406 54.6113 20.8331 54.8318 21.2307 54.8804C21.1665 54.9995 21.2136 55.1539 21.2392 55.37C20.6066 55.3038 20.0594 55.0965 19.5166 54.8892ZM27.5143 56.2743C27.6425 56.1905 27.7194 56.3625 27.9503 56.3228C27.946 56.2875 27.8733 56.3008 27.822 56.292C27.8349 56.239 28.0058 56.2699 28.0016 56.2081C27.9289 56.1287 27.6126 56.217 27.4459 56.2037C27.6981 56.0185 28.3264 56.0317 28.5316 55.9126C28.6342 55.9876 28.5915 56.1111 28.553 56.1376C28.6214 56.2611 28.6898 56.1332 28.8052 56.1949C28.9719 56.1332 28.6043 56.1332 28.6641 56.0185C29.1343 55.9832 29.2455 56.0229 29.4506 55.8905C29.6516 55.9214 29.4506 55.9567 29.8183 55.8729C29.8824 56.1243 29.4335 55.9964 29.2882 56.089C29.5148 56.2478 30.0619 55.8376 30.1004 56.0934C29.908 56.1155 29.7071 56.1596 29.4977 56.2037C29.2882 56.2346 29.0702 56.2699 28.8479 56.3008C28.4077 56.3581 27.946 56.389 27.5143 56.2743ZM27.6553 57.8006C27.5955 57.9153 27.8049 57.8579 27.9204 57.8623C27.7066 57.9241 27.3561 57.9417 26.9671 57.955C26.5739 57.9417 26.1421 57.9197 25.7574 57.9462C26.2191 57.6682 26.9628 57.9329 27.6553 57.8006ZM25.5608 58.0476C25.9327 58.1094 26.0224 58.0829 26.42 58.1182C26.0481 57.9285 27.245 58.0256 27.3433 58.1138C27.0312 58.2196 26.6636 58.1976 26.3174 58.1755C25.9711 58.1579 25.6506 58.1402 25.424 58.2285C25.3684 58.1094 25.5309 58.1182 25.5608 58.0476ZM25.3513 58.3784C25.4069 58.2505 25.5864 58.3476 25.6848 58.3917C25.6677 58.4799 25.3898 58.4005 25.3513 58.3784ZM29.861 58.5858L29.8439 58.4667C29.814 58.4755 29.7841 58.4799 29.7541 58.4887C29.6088 58.5152 29.4592 58.5328 29.301 58.5549C28.989 58.5946 28.6599 58.6299 28.3264 58.6519C27.6553 58.6916 26.9458 58.7269 26.2832 58.599C26.2105 58.6078 26.2362 58.674 26.1507 58.6696C25.9925 58.6519 25.8728 58.6122 25.7489 58.577C25.766 58.4623 26.0823 58.5284 26.2875 58.524C26.2917 58.4711 26.296 58.4181 26.2191 58.4093C26.8688 58.3917 28.0443 58.3961 29.0018 58.127C29.2198 58.1535 29.4293 58.1844 29.5532 58.2726C29.7456 58.2285 29.4977 58.1579 29.5319 58.0873C29.6986 58.052 29.8525 58.1976 29.9337 58.0785C30.1303 58.0829 30.0149 58.1226 30.0192 58.2152C30.3483 58.1094 30.5834 58.0256 30.8014 58.0167C30.8484 57.8844 30.5877 57.9947 30.4594 57.9947C30.6475 57.8315 31.1135 57.805 31.3144 57.8535C31.3913 57.9859 31.0493 58.1491 31.4298 58.1005C31.1605 58.2814 30.3569 58.1491 30.2414 58.3343C30.7629 58.3476 31.635 58.0652 31.9427 58.2417C31.2545 58.5328 30.6176 58.4181 29.861 58.5858ZM32.9173 57.6903C32.9088 57.6241 32.819 57.633 32.819 57.5624C33.0669 57.4565 33.0413 57.6197 33.2892 57.5139C33.2379 57.5888 33.0242 57.6285 32.9173 57.6903ZM34.6742 57.011C33.8834 57.1389 33.2037 57.3506 32.3958 57.5183C32.4215 57.5844 32.6181 57.483 32.6694 57.5227C32.6865 57.6374 32.289 57.6947 32.2719 57.58C32.1052 57.6859 32.0966 57.7212 32.1949 57.8579C31.8957 57.7785 31.8359 57.6815 31.9384 57.5977C32.0453 57.5094 32.3189 57.4433 32.695 57.3595C32.6267 57.3198 32.477 57.3595 32.3574 57.3727C32.3018 57.2668 32.6438 57.2668 32.6523 57.1786C32.7421 57.1654 32.7292 57.258 32.7506 57.3065C33.3619 57.1036 33.4046 57.0727 34.0715 56.8698C34.1954 56.9801 34.3921 56.7816 34.563 56.8875C34.7255 56.8081 34.345 56.861 34.516 56.7463C34.9734 56.6493 34.9606 56.7551 35.4137 56.5213C35.388 56.4199 35.0247 56.7154 35.0674 56.5346C35.3709 56.4816 35.5847 56.3669 35.7941 56.217C35.8454 56.2919 35.8326 56.3537 35.7984 56.4155C35.9651 56.3625 35.9822 56.2875 35.9309 56.2037C36.2301 56.0449 36.3327 56.1199 36.478 56.1508C36.2515 56.5302 35.0418 56.7198 34.6742 57.011ZM40.6115 55.3612C40.603 55.1671 40.8723 55.1495 41.0219 54.973C41.0775 55.0877 40.7355 55.2333 40.6115 55.3612ZM42.5009 54.9465C42.3898 55.22 42.3983 54.8936 42.2231 55.0392C42.2145 54.9862 42.3556 54.9157 42.4411 54.8539C42.4667 54.9024 42.4881 54.9465 42.5607 54.9068C42.5693 54.9509 42.5095 54.9642 42.5009 54.9465ZM42.2829 54.3819L42.5137 54.2319L42.5778 54.3246C42.4582 54.3819 42.3214 54.4745 42.2829 54.3819ZM42.5522 54.1613C42.5052 54.0819 42.6933 53.9628 42.8386 53.8481L42.9027 53.9364C42.7702 54.0467 42.642 54.1481 42.5522 54.1613ZM42.4539 53.9805C42.0948 54.2363 41.7272 54.4745 41.5434 54.6378C41.5648 54.4834 41.8725 54.2452 42.2402 53.9849C42.6035 53.7202 43.0096 53.4026 43.2789 53.1732C43.1335 53.407 42.8001 53.7026 42.4539 53.9805ZM44.9973 53.4203C44.8733 53.3364 44.8519 53.3409 44.8861 53.1777C45.0186 53.1688 45.2281 53.2306 44.9973 53.4203ZM45.2024 53.1115C45.1426 53.1115 45.0528 53.1865 45.0186 53.1159C45.0827 53.0938 45.1469 53.0718 45.1298 53.0277C45.1939 52.9836 45.211 53.0497 45.2836 52.988C45.2751 53.0365 45.2666 53.085 45.3008 53.1203C45.2366 53.1688 45.1255 53.1865 45.2024 53.1115ZM46.1856 52.5998C46.1685 52.5469 46.2967 52.4542 46.3694 52.3748C46.3309 52.3528 46.254 52.441 46.1856 52.4983C46.0915 52.4939 46.2583 52.2601 46.0873 52.388C46.1001 52.2998 46.3779 52.2778 46.472 52.2733C46.2967 52.4586 46.4121 52.4719 46.1856 52.5998ZM47.4209 50.4074L47.5022 50.4824L47.267 50.7471C47.173 50.6897 47.3654 50.5221 47.4209 50.4074ZM47.8056 50.8618C47.8484 50.6897 47.7373 50.8221 47.609 50.9721C47.5577 50.8044 47.9168 50.6589 48.0621 50.5089C48.1177 50.575 47.874 50.7515 47.8056 50.8618ZM48.0151 49.8957C47.9681 50.2133 47.8869 50.5045 47.4209 50.7956C47.468 50.5883 47.8954 50.3016 47.7458 50.0369C48.1775 49.6311 48.4426 49.2296 48.6777 49.0664C48.6734 49.3576 48.2844 49.7854 48.0151 49.8957ZM49.2504 48.4312C49.0111 48.7091 48.8786 48.7753 48.7803 49.0576L48.6392 48.9429C48.9213 48.6738 49.1393 48.2018 49.4685 47.8842C49.4685 48.096 49.1906 48.2327 49.2504 48.4312ZM52.0973 43.8303C51.9776 43.8259 52.0546 43.6715 51.9306 43.6671C52.0375 43.5965 52.1315 43.2216 52.2426 43.3451C52.1657 43.1951 52.4265 42.9216 52.5419 42.6967C52.3196 43.1157 52.2982 43.5348 52.0973 43.8303ZM52.1443 45.0743C52.093 45.039 52.0332 45.0743 51.9776 45.1493C51.9135 45.1007 51.999 44.9552 52.093 44.8008C52.0973 44.9464 52.1828 44.7876 52.1871 44.9331C52.2683 44.8228 52.3581 44.5273 52.4307 44.6508C52.3367 44.7082 52.2384 44.9067 52.1443 45.0743ZM52.5248 44.2891C52.5119 44.0641 52.6188 44.02 52.7428 43.8259C52.7513 44.0509 52.6487 44.095 52.5248 44.2891ZM52.7727 41.6335C52.7513 41.5586 52.7684 41.4395 52.8325 41.2762C52.9351 41.2983 52.871 41.563 52.7727 41.6335ZM52.7129 40.6278C52.7086 40.4381 52.8069 40.3764 52.8625 40.0852C52.9693 40.1293 52.7941 40.5484 52.7129 40.6278ZM53.0762 39.128C53.1788 39.225 52.9779 39.3927 52.9907 39.6132C52.8411 39.6265 53.0505 39.2868 53.0762 39.128ZM53.0591 40.3058C53.0206 40.0411 53.0719 39.9176 53.136 39.5162C53.1574 39.6309 53.0976 40.0014 53.2514 39.6265C53.3711 39.7676 53.1232 40.0544 53.0591 40.3058ZM53.5763 37.2444C53.4353 37.9282 53.4994 38.1884 53.4865 38.5192C53.4566 38.6781 53.3669 38.5678 53.3284 38.6913C53.5207 38.6251 53.3882 39.1412 53.2985 39.4853C53.1831 39.4235 53.1189 39.4235 53.1147 39.353C53.1788 39.2956 53.2301 39.053 53.213 38.9427C53.0805 39.1103 53.1531 38.7089 53.0676 38.6825C53.1275 38.5501 53.1617 38.5545 53.1916 38.6472C53.2386 38.1267 53.4823 37.5267 53.5207 37.0106C53.5592 37.0283 53.572 37.1474 53.6276 37.0327C53.478 37.1077 53.6618 36.7989 53.5678 36.8077C53.5207 36.8827 53.4908 36.8606 53.4737 36.7989C53.525 36.6401 53.5763 36.4813 53.6191 36.3181C53.7516 36.2695 53.5549 36.6136 53.649 36.6136C53.7046 36.3092 53.961 35.8461 53.8328 35.7314C53.7558 36.0313 53.7601 36.1593 53.6233 36.3004C53.6276 36.2916 53.6276 36.2828 53.6319 36.274C53.6917 36.0093 53.7388 35.7358 53.7772 35.4535C53.8328 35.4535 53.8798 35.427 53.9268 35.3873C53.9268 35.3917 53.9268 35.3917 53.9226 35.3961C54.0251 35.5461 54.0038 35.7402 53.961 35.9387C53.914 36.1372 53.8371 36.3357 53.8584 36.5166C53.7687 36.6754 53.7217 36.6577 53.6704 36.693C53.7644 36.8298 53.649 37.4694 53.602 37.6061C53.4823 37.615 53.649 37.2929 53.5763 37.2444ZM53.572 40.7116C53.6875 40.4778 53.6105 40.3543 53.7387 40.2352C53.914 40.2043 53.6917 40.8439 53.572 40.7116ZM53.7473 40.0852C53.8969 39.9794 54.0209 39.6926 54.1876 39.6926C54.0593 39.9529 53.9311 40.2043 53.7473 40.0852ZM55.2135 28.1177C55.2135 28.1177 55.2135 28.1221 55.2135 28.1265C55.2135 28.1265 55.2135 28.1221 55.2135 28.1177ZM55.3759 27.8089C55.4058 27.6986 55.4101 28.1132 55.4486 28.3823C55.2861 28.3073 55.3246 27.9809 55.3759 27.8089Z" fill="#00B307"/>
<path fill-rule="evenodd" clip-rule="evenodd" d="M15.7382 5.37793C15.6356 5.54114 14.973 5.75729 14.9346 5.82787C15.0799 5.80581 15.9519 5.40881 15.7382 5.37793Z" fill="#00B307"/>
<path fill-rule="evenodd" clip-rule="evenodd" d="M30.1557 0.2477C30.113 0.159476 29.7582 0.207997 29.7325 0.128595C30.1856 0.0271379 30.4763 0.349158 30.938 0.39327C30.9551 0.349158 30.938 0.287396 31.0192 0.291807C31.0876 0.353564 31.126 0.419734 31.2158 0.472668C31.7031 0.450612 32.605 0.746163 33.0154 0.618238C32.9128 0.534426 32.4939 0.499135 32.7589 0.410912C32.4041 0.335921 32.6991 0.512369 32.5195 0.521191C32.511 0.490313 32.4682 0.468257 32.3828 0.459435C32.511 0.309454 31.9168 0.35798 31.6817 0.234466C31.4979 0.256522 31.7971 0.366801 31.592 0.371212C31.4466 0.225643 31.1517 0.155064 31.1645 0.309456C31.2115 0.260933 30.5917 0.24329 30.8183 0.146244C30.0488 0.0712537 30.1301 -0.00814865 29.5273 0.000673734C29.5829 0.137421 29.5316 0.093304 29.5872 0.230051C29.8693 0.172705 29.9676 0.291811 30.1557 0.2477Z" fill="#00B307"/>
<path fill-rule="evenodd" clip-rule="evenodd" d="M38.3379 5.94254C38.5131 5.99106 38.7525 6.13222 38.8936 6.13222C38.7525 6.03958 38.4319 5.88961 38.3379 5.94254Z" fill="#00B307"/>
<path fill-rule="evenodd" clip-rule="evenodd" d="M40.996 6.08368C40.9276 6.19837 40.654 5.96458 40.5215 5.96899C40.5942 6.11015 41.1156 6.25572 40.996 6.08368Z" fill="#00B307"/>
<path fill-rule="evenodd" clip-rule="evenodd" d="M42.8388 4.95887C42.873 4.90593 43.0184 5.0471 43.0611 5.01181C42.9542 4.96328 42.9243 4.76037 43.0739 4.84418C43.1509 4.96328 43.2449 4.88388 43.433 4.92799C43.0825 4.80889 42.5781 4.46041 42.4199 4.52217C42.6849 4.5751 43.0013 4.88388 42.8388 4.95887Z" fill="#00B307"/>
<path fill-rule="evenodd" clip-rule="evenodd" d="M42.9881 8.66864C42.8983 8.74363 43.0308 8.8495 43.1847 8.95978C43.1505 8.78333 43.5096 9.14505 43.3514 8.95096C43.2189 8.85391 43.1463 8.88479 43.1634 8.76128C43.1933 8.78333 43.2403 8.78333 43.1847 8.7304C43.1334 8.74804 43.0821 8.75687 43.0138 8.73922C43.0309 8.71716 43.0351 8.69511 42.9881 8.66864Z" fill="#00B307"/>
<path fill-rule="evenodd" clip-rule="evenodd" d="M43.4629 9.1274C43.7621 9.48912 44.1212 10.0802 44.4973 10.1376C44.4631 10.0979 44.4033 10.0493 44.4247 10.0185C44.5786 10.142 44.6683 10.089 44.8564 10.3184C44.9333 10.2567 44.8179 10.1508 44.7324 10.0537C44.4931 9.93906 43.6296 9.35237 43.7065 9.1274C43.6253 9.1274 43.5227 9.07888 43.4629 9.1274Z" fill="#00B307"/>
<path fill-rule="evenodd" clip-rule="evenodd" d="M45.9717 7.88348C46.0657 8.11728 46.8009 8.52752 46.7967 8.7966C46.9206 8.9113 46.9933 8.89365 47.1344 9.06569C47.0702 9.07892 46.9976 9.06128 46.9335 9.07892C47.0446 9.15832 47.16 9.24213 47.2712 9.34359C47.378 9.44946 47.4849 9.56415 47.596 9.68766C47.814 9.93028 48.032 10.1994 48.25 10.464C48.6903 10.9978 49.1391 11.5227 49.5751 11.8977C49.6179 12.3564 50.2206 12.48 50.1608 12.8152C50.2206 12.7049 50.1864 12.7314 50.3018 12.7005C49.9428 12.4094 49.6093 11.8227 49.6435 11.5933C49.6307 11.5845 49.6307 11.5668 49.6606 11.5315C49.6478 11.5448 49.6478 11.5712 49.6435 11.5933C49.6863 11.6242 49.9043 11.558 49.9086 11.8006C50.0325 11.8271 49.9 11.558 50.0197 11.7036C50.0582 11.8491 50.0838 11.9859 50.0966 12.1138C50.2078 12.2417 50.3104 12.3256 50.413 12.4182C50.3873 12.4535 50.3232 12.4755 50.3702 12.5461C50.4985 12.3608 50.6352 12.8152 50.6994 12.9343C50.725 12.749 50.4642 12.4182 50.5113 12.2417C50.3745 12.2682 50.4172 12.1447 50.2634 11.9682C50.289 11.933 50.3488 11.9109 50.3061 11.8403C50.242 11.8183 50.1693 11.5183 49.9684 11.4521C50.0453 11.5889 50.0197 11.6154 49.9299 11.5845C49.759 11.2536 49.4213 10.9934 49.2759 10.5964C49.1007 10.7111 48.9981 10.442 48.8356 10.2082C48.7886 10.2391 48.7544 10.3229 48.6818 10.2567C48.592 10.1376 48.6561 10.0803 48.6433 9.99203C48.7202 10.0935 48.981 10.2655 48.8656 10.0803C48.7843 10.1464 48.5535 9.68325 48.4723 9.74942C48.5834 9.86411 48.6048 9.94351 48.5407 9.99203C48.4894 9.79353 48.3825 9.93028 48.2244 9.69208C48.1389 9.7406 48.0577 9.81118 47.9465 9.77147C47.9594 9.5068 47.6259 9.52886 47.4592 9.348C47.3866 9.13627 47.3224 8.95541 47.3737 8.7966C47.1899 8.65986 47.16 8.58928 47.0873 8.57604C47.1899 8.68632 47.1258 8.74808 47.1472 8.8363C46.771 8.58928 46.6813 8.45694 46.3564 8.09963C46.2282 8.10846 46.0914 8.05111 45.9717 7.88348ZM48.7929 10.6581C48.8698 10.6978 48.9553 10.7684 49.0579 10.9052C49.0194 11.0948 48.7972 10.5964 48.7587 10.7905C48.7117 10.7199 48.7715 10.6934 48.7929 10.6581Z" fill="#00B307"/>
<path fill-rule="evenodd" clip-rule="evenodd" d="M45.6943 11.0551C45.7756 11.1831 45.7499 11.2801 45.7456 11.3816C45.8482 11.5316 45.8867 11.4257 45.9722 11.5227C45.9252 11.5668 45.9423 11.6286 45.985 11.6992C46.109 11.4786 45.7798 11.311 45.8354 11.0948C45.7969 11.1345 45.7328 11.0375 45.6943 11.0551Z" fill="#00B307"/>
<path fill-rule="evenodd" clip-rule="evenodd" d="M53.2896 18.7394C53.2639 18.3601 53.5247 18.8497 53.5546 18.6159C53.4349 18.6556 53.3238 18.3998 53.2041 18.3821C53.3665 18.6027 53.1742 18.5498 53.2896 18.7394Z" fill="#00B307"/>
<path fill-rule="evenodd" clip-rule="evenodd" d="M53.3886 20.0319C53.3373 20.0319 53.2903 19.9613 53.2305 20.0231C53.3117 20.2172 53.2518 20.2789 53.2518 20.398C53.2946 20.3671 53.4442 20.7112 53.4015 20.4907C53.2006 20.248 53.4271 20.1951 53.3886 20.0319Z" fill="#00B307"/>
<path fill-rule="evenodd" clip-rule="evenodd" d="M51.4092 45.9124C51.5331 45.8242 51.7255 45.8462 51.6742 45.8153C51.7255 45.6212 51.4861 45.7447 51.4092 45.9124Z" fill="#00B307"/>
<path fill-rule="evenodd" clip-rule="evenodd" d="M49.0963 49.309C48.921 49.5339 48.6987 49.6354 48.7073 49.8251C48.8312 49.7457 49.0834 49.5075 49.0364 49.7236C49.0792 49.5383 49.5878 49.1943 49.451 49.2207C49.31 49.3354 48.9466 49.6177 49.0963 49.309Z" fill="#00B307"/>
<path fill-rule="evenodd" clip-rule="evenodd" d="M51.5711 52.238C51.5625 52.3262 51.5625 52.3174 51.5283 52.6262C51.7378 52.3307 51.9216 52.0439 51.8062 51.9028C51.7463 52.0042 51.5027 52.1939 51.5711 52.238Z" fill="#00B307"/>
<path fill-rule="evenodd" clip-rule="evenodd" d="M42.6291 55.7935C42.5308 55.8729 42.441 55.8464 42.4453 55.9126C42.6932 55.8376 42.2401 56.1067 42.2615 56.164C42.4239 56.1111 42.8129 55.8376 42.7317 55.8155C42.4795 55.9831 42.5735 55.8905 42.6291 55.7935Z" fill="#00B307"/>
<path fill-rule="evenodd" clip-rule="evenodd" d="M34.4132 59.2562C34.5158 59.2651 34.6825 59.2166 34.721 59.2871C34.3961 59.393 33.8489 59.318 34.0285 59.4768C34.1268 59.3621 34.4602 59.4062 34.5457 59.4503C34.6055 59.3489 35.2425 59.0489 35.0458 59.1151C34.7466 59.2739 34.5115 59.1371 34.4132 59.2562Z" fill="#00B307"/>
<path fill-rule="evenodd" clip-rule="evenodd" d="M32.7461 59.3533C32.7504 59.5298 32.4854 59.7283 32.776 59.8032C32.7376 59.7371 32.853 59.7106 32.8914 59.6621C32.6649 59.6224 32.6948 59.4018 33.1052 59.3357C33.1479 59.1945 32.8786 59.3357 32.7461 59.3533Z" fill="#00B307"/>
<path fill-rule="evenodd" clip-rule="evenodd" d="M31.5192 59.7195C31.3781 59.7768 31.6816 59.843 31.6389 59.9665L31.3567 60.015L31.3225 59.8297C31.1088 59.9841 30.6899 60.0106 30.8652 60.1297C30.7497 60.09 30.5702 60.1473 30.5146 60.2223C31.0618 60.187 31.1986 60.0282 31.6517 60.0371C31.6517 59.9929 31.656 59.9488 31.7799 59.94C31.5619 59.8783 31.7628 59.7106 31.5192 59.7195Z" fill="#00B307"/>
<path fill-rule="evenodd" clip-rule="evenodd" d="M28.4844 61.8368C28.6254 61.8853 28.9845 61.8059 28.8776 62C29.4162 61.9471 28.6596 61.7001 28.4844 61.8368Z" fill="#00B307"/>
<path fill-rule="evenodd" clip-rule="evenodd" d="M25.5225 59.8429C25.6037 59.8649 25.6806 59.8914 25.7319 59.9267C26.5142 59.8958 25.6763 59.8385 25.5225 59.8429Z" fill="#00B307"/>
<path fill-rule="evenodd" clip-rule="evenodd" d="M25.0946 60.0105C25.1544 60.1252 25.475 60.1693 25.6588 60.1473C25.6075 60.0635 25.3511 59.9973 25.522 59.9179C25.1459 59.8738 24.9193 59.9179 24.6757 59.9532C24.8809 60.0899 24.4662 60.0811 24.5945 60.1341C24.6885 60.0855 24.9322 60.0988 25.0219 60.1561C25.1117 60.0679 24.9877 60.0414 25.0946 60.0105Z" fill="#00B307"/>
<path fill-rule="evenodd" clip-rule="evenodd" d="M24.1242 59.6621C24.1285 59.7547 24.0088 59.7768 23.9062 59.79C23.8934 59.7106 23.5984 59.7371 23.5642 59.6665C23.4873 59.6886 23.53 59.7989 23.3462 59.7503C22.1322 59.5562 21.226 59.4371 20.3839 59.1857C19.9608 59.071 19.5461 58.9563 19.1059 58.8372C18.8878 58.7755 18.6613 58.7137 18.4262 58.6475C18.1954 58.5637 17.956 58.4799 17.6995 58.3873C17.6568 58.6343 17.4815 58.2726 17.3447 58.3387C17.4174 58.5725 17.5798 58.5902 17.8876 58.771C17.9816 58.6784 17.7337 58.6343 17.7294 58.5549C17.8192 58.5902 17.8833 58.5902 17.9389 58.5902C17.8021 58.7137 18.2552 58.8152 18.0116 58.8549C18.5117 58.996 19.0759 59.071 19.6872 59.2077C19.995 59.2739 20.3113 59.3445 20.649 59.4239C20.8157 59.4636 20.9867 59.5077 21.1662 59.5518C21.3457 59.5871 21.5253 59.6224 21.7133 59.6621C21.7176 59.5959 21.7817 59.5739 21.8672 59.5739C22.0254 59.693 22.0468 59.64 22.3545 59.6886C22.2605 59.7856 22.2947 59.8209 22.4699 59.8959C22.487 59.8562 22.4699 59.79 22.5554 59.7944C22.9188 59.8474 23.4018 59.8694 23.825 59.8518C24.2054 59.8341 24.5346 59.7591 24.7055 59.6886C24.573 59.715 24.2866 59.6489 24.1242 59.6621Z" fill="#00B307"/>
<path fill-rule="evenodd" clip-rule="evenodd" d="M15.1826 53.5438C15.4263 53.6408 15.6956 53.8305 15.4177 53.782C15.5502 53.8878 15.7255 54.0069 15.8324 53.9408C16.0076 54.1128 16.029 54.3907 16.3026 54.4569C16.2812 54.5186 16.247 54.5583 16.1871 54.5672C16.388 54.6333 16.4906 54.5672 16.6573 54.5848C16.7642 54.651 16.6488 54.7392 16.8454 54.7965C16.9352 54.7304 17.2601 54.8142 17.5636 54.9333C17.5465 54.9509 17.5294 54.973 17.5251 54.9906C17.5208 55.0392 17.555 55.0877 17.5678 55.1406C17.5977 55.1097 17.6448 55.0789 17.6448 55.048C17.6448 55.0215 17.6405 54.9906 17.6277 54.9642C17.9654 55.1097 18.2518 55.2906 18.1321 55.3656C18.3073 55.4097 18.4826 55.4803 18.6536 55.5553H18.6493C18.6279 55.5597 18.6065 55.5906 18.5852 55.6082C18.5467 55.6435 18.5638 55.6964 18.6365 55.7141C18.7946 55.7538 18.9742 55.7052 19.0981 55.8596C19.2435 55.7538 19.3674 55.8023 19.517 55.8817C19.6025 55.9258 19.6666 55.8817 19.7008 55.7891C19.7137 55.7846 19.7222 55.7847 19.735 55.7802C19.7265 55.7758 19.7179 55.7714 19.7094 55.767C19.7179 55.7361 19.7179 55.7052 19.7222 55.6655C19.8291 55.6876 19.9488 55.7185 19.9659 55.6479C19.8889 55.6303 19.8034 55.6126 19.7222 55.595C19.7094 55.5156 19.6752 55.4053 19.6324 55.4362C19.5726 55.4803 19.5085 55.5068 19.4444 55.5244C19.3845 55.5112 19.3289 55.4979 19.2691 55.4803C19.034 55.4009 18.7904 55.3127 18.5553 55.22C18.085 55.0392 17.6319 54.8627 17.2772 54.7304C17.3199 54.6995 17.3712 54.673 17.4353 54.6686C17.6148 54.726 17.679 54.9156 17.7901 54.801C17.6063 54.7348 17.5208 54.651 17.4011 54.576C17.3071 54.6598 17.1361 54.6201 16.9694 54.5539C16.8027 54.4789 16.636 54.3863 16.5248 54.3995C16.6146 54.3907 16.6488 54.3069 16.5932 54.2275C16.3496 54.1437 16.0333 53.954 15.9007 53.7687C15.9349 53.7246 16.0204 53.7555 16.0589 53.7202C15.6998 53.5526 15.546 53.6188 15.1826 53.5438Z" fill="#00B307"/>
<path fill-rule="evenodd" clip-rule="evenodd" d="M16.7812 56.4949C17.1232 56.5346 17.4182 56.5698 17.743 56.8125C17.7601 56.7639 17.7388 56.7242 17.7131 56.6845C17.82 56.7242 17.8841 56.7154 17.9226 56.6801C17.525 56.5875 17.3412 56.486 16.9522 56.4022C17.3711 56.5522 16.8796 56.4993 16.7812 56.4949Z" fill="#00B307"/>
<path fill-rule="evenodd" clip-rule="evenodd" d="M16.1606 56.0449C16.0537 55.9964 15.9725 55.9478 15.9298 55.8949C15.8229 55.9655 16.1349 56.261 16.058 56.1199C15.887 56.014 16.1734 56.1066 16.1606 56.0449Z" fill="#00B307"/>
<path fill-rule="evenodd" clip-rule="evenodd" d="M14.7415 56.2699C14.5748 56.4772 15.3057 56.6449 15.3314 56.8434L15.357 56.7728C15.3955 56.7904 15.434 56.8037 15.434 56.7684C15.2886 56.6757 15.0792 56.5919 14.8227 56.4331C14.8398 56.3758 14.8826 56.3184 14.7415 56.2699Z" fill="#00B307"/>
<path fill-rule="evenodd" clip-rule="evenodd" d="M12.6215 57.9549C12.6899 57.9637 12.9036 57.902 12.7669 57.8226C12.5916 57.8755 12.5104 57.7432 12.3693 57.7829C12.4805 57.8491 12.5275 57.902 12.536 57.9593C12.3009 57.8976 12.3138 57.8402 12.0787 57.6991C12.0316 57.752 12.1128 57.8138 12.0787 57.8711C11.8777 57.6903 11.6726 57.7167 11.5059 57.655C11.7025 57.7608 11.6683 57.8491 11.8649 57.9593C12.1128 57.9329 12.271 58.0917 12.7284 58.2637C12.7412 58.1887 12.8523 58.2417 12.9122 58.2284C12.7369 58.1358 12.7027 58.0432 12.6215 57.9549Z" fill="#00B307"/>
<path fill-rule="evenodd" clip-rule="evenodd" d="M14.3955 50.9808C14.5408 51.0161 14.5964 51.2014 14.6434 51.1352C14.4254 50.9852 14.5494 50.95 14.5366 50.8529C14.4212 50.8838 14.3998 50.8485 14.3955 50.9808Z" fill="#00B307"/>
<path fill-rule="evenodd" clip-rule="evenodd" d="M44.3564 5.94697C44.6043 6.1543 44.7197 6.09696 44.9035 6.17636C45.0488 6.32634 45.0574 6.45426 45.1429 6.59542C45.2839 6.64394 45.4335 6.77628 45.6045 6.92626C45.767 7.08947 45.9508 7.27034 46.1645 7.41149C45.8909 7.18652 45.908 7.04095 45.8439 6.87333C45.5917 6.77187 45.4977 6.59983 45.2668 6.55131C45.3096 6.49837 45.2668 6.45426 45.1728 6.43221C45.2369 6.36604 45.2882 6.29546 45.1642 6.194C44.9762 6.18077 44.7026 5.99109 44.5145 5.97344C44.4846 5.88963 44.4803 5.81023 44.4205 5.71759C44.3948 5.7617 44.3478 5.76611 44.3008 5.76611C44.4076 5.8411 44.4162 5.89845 44.3564 5.94697Z" fill="#00B307"/>
<path fill-rule="evenodd" clip-rule="evenodd" d="M18.1617 59.1901C18.0207 59.0842 17.854 58.9828 17.6787 58.8901C17.3239 58.7049 16.9136 58.5593 16.5203 58.5461C16.4947 58.8548 16.204 58.8769 15.815 58.7975C15.9005 58.6299 15.4645 58.5196 15.426 58.3652C15.3918 58.5284 15.1524 58.352 15.161 58.4446C15.1439 58.3784 15.0883 58.3123 15.0028 58.2461C14.9558 58.427 14.5497 58.1579 14.2847 58.0652C14.2377 58.1976 14.3189 58.1976 14.1992 58.2726C14.4642 58.5284 15.1311 58.8725 15.3448 59.0092C16.0373 59.0622 16.7811 59.8959 17.6616 60.1032C18.2515 60.2356 18.6362 59.9709 18.5165 59.468C18.4268 59.3842 18.3071 59.2916 18.1617 59.1901Z" fill="#00B307"/>
</g>
<path d="M21.25 40.75H34.75" stroke="#00B307" stroke-width="1.5" stroke-linecap="round" stroke-linejoin="round"/>
<path d="M28 31.75C28.7956 31.75 29.5587 31.4339 30.1213 30.8713C30.6839 30.3087 31 29.5456 31 28.75C31 27.9544 30.6839 27.1913 30.1213 26.6287C29.5587 26.0661 28.7956 25.75 28 25.75C27.2044 25.75 26.4413 26.0661 25.8787 26.6287C25.3161 27.1913 25 27.9544 25 28.75C25 29.5456 25.3161 30.3087 25.8787 30.8713C26.4413 31.4339 27.2044 31.75 28 31.75V31.75Z" stroke="#00B307" stroke-width="1.5" stroke-linecap="round" stroke-linejoin="round"/>
<path d="M35.5 28.75C35.5 35.5 28 40.75 28 40.75C28 40.75 20.5 35.5 20.5 28.75C20.5 26.7609 21.2902 24.8532 22.6967 23.4467C24.1032 22.0402 26.0109 21.25 28 21.25C29.9891 21.25 31.8968 22.0402 33.3033 23.4467C34.7098 24.8532 35.5 26.7609 35.5 28.75V28.75Z" stroke="#00B307" stroke-width="1.5" stroke-linecap="round" stroke-linejoin="round"/>
</svg>
