<svg width="45" height="32" viewBox="0 0 45 32" fill="none" xmlns="http://www.w3.org/2000/svg">
<rect x="0.5" y="0.5" width="44" height="30.7647" rx="4.79412" fill="#002603" stroke="#173B1A"/>
<path fill-rule="evenodd" clip-rule="evenodd" d="M14.2279 20.989H11.5017L9.45748 12.9607C9.36045 12.5913 9.15443 12.2649 8.85138 12.111C8.09508 11.7243 7.26169 11.4165 6.35254 11.2613V10.9522H10.7441C11.3502 10.9522 11.8048 11.4165 11.8806 11.9558L12.9412 17.7469L15.666 10.9522H18.3164L14.2279 20.989ZM19.8307 20.989H17.2561L19.3762 10.9522H21.9508L19.8307 20.989ZM25.2811 13.7327C25.3568 13.1921 25.8114 12.883 26.3417 12.883C27.1751 12.8054 28.0829 12.9606 28.8406 13.346L29.2951 11.185C28.5375 10.8759 27.7041 10.7207 26.9478 10.7207C24.449 10.7207 22.6307 12.1109 22.6307 14.0404C22.6307 15.5083 23.9187 16.279 24.8278 16.7433C25.8114 17.2063 26.1902 17.5154 26.1144 17.9783C26.1144 18.6728 25.3568 18.9819 24.6005 18.9819C23.6914 18.9819 22.7822 18.7504 21.9502 18.3637L21.4956 20.526C22.4047 20.9114 23.3883 21.0666 24.2975 21.0666C27.0994 21.1429 28.8406 19.7539 28.8406 17.6693C28.8406 15.044 25.2811 14.8901 25.2811 13.7327ZM37.8509 20.989L35.8066 10.9522H33.6108C33.1562 10.9522 32.7016 11.2613 32.5501 11.7243L28.7646 20.989H31.415L31.944 19.5225H35.2005L35.5035 20.989H37.8509ZM33.9904 13.655L34.7467 17.4377H32.6267L33.9904 13.655Z" fill="white"/>
</svg>
